<svg id="Layer_1" data-name="Layer 1" xmlns="http://www.w3.org/2000/svg" width="90" height="90" viewBox="0 0 90 90"><defs><style>.cls-1{fill:#af7171;}.cls-2{fill:#fff;}</style></defs><circle class="cls-1" cx="45.21" cy="45.21" r="38.5"/><path class="cls-2" d="M56.59,35.31l-1.14,7.92H47.89V66.75H37V43.23H31.39l1.14-7.92H37a18.11,18.11,0,0,1,.75-5.25,10.93,10.93,0,0,1,6.57-7.23,16.14,16.14,0,0,1,6.24-1.08,26.89,26.89,0,0,1,5.22.39,23.81,23.81,0,0,1,2.88.75l-1.8,7.5A18.87,18.87,0,0,0,54.76,30a19.13,19.13,0,0,0-2.37-.12,5.36,5.36,0,0,0-2.31.42,3.53,3.53,0,0,0-1.38,1.14A3.93,3.93,0,0,0,48,33.12a14.68,14.68,0,0,0-.15,2.19Z"/></svg>