<svg id="Layer_1" data-name="Layer 1" xmlns="http://www.w3.org/2000/svg" width="1351" height="1351" viewBox="0 0 1351 1351"><defs><style>.cls-1{fill:none;stroke:#000;stroke-miterlimit:10;stroke-width:3px;}</style></defs><path class="cls-1" d="M409.66,1069s40.76-16.41,80.87,0C490.53,1069,507.05,1110,409.66,1069Z"/><path class="cls-1" d="M511.1,1074.43s147.68,3.76,161-103.88c0,0,12.3-44.08,90.21-89.19,0,0,30.76-28.7,14.35-108.67,0,0,3.08-21.53,29.73-48.18,0,0,12.3-17.43,0-144,0,0-20,17.43-15.89,97.4,0,0-39,42-39,170.17,0,0,5.12,42-73.82,69.71,0,0-35.88,96.37-78.93,114.82S581.28,1037.36,511.1,1074.43Z"/><path class="cls-1" d="M372.2,1074.45s56.43,8.36,99.49,71.92c0,0-47.78-33-84.89-36,0,0,78.65,56,63.83,71.08,0,0-81.46-31-92.74-61.78l56.9,97.21s-97.91-60.3-98.93-91.06c0,0,1,51.26,8.2,66.64,0,0-27.68-29.73-45.11-91.24,0,0-13.32,13.33-35.88,6.15,0,0,14.35-27.68,11.28-76.89,0,0-8.2-22.55,76.89-11.27,0,0,14.35,8.2,11.27-31.78,0,0,27.68,17.39,14.87,47.65,0,0,61,2.41,52.28-33.9,0,0,30.25,21.1-14.86,53.91C394.8,1055.13,378.31,1059.94,372.2,1074.45Z"/><path class="cls-1" d="M261.55,1020.34s-10.28-27.75,4.08-42.1c0,0,13.49,37.86,21.1,37.9l2.48-34.82s21.23,8.51,25.48,36"/><path class="cls-1" d="M297.41,1036.67s-16.41,18.46,6.15,31.78"/><path class="cls-1" d="M914.86,1090.53s28.4,25.08-20.81,16.88-127.12-37.93-127.12-37.93-11.43-8.2-23.65,0"/><path class="cls-1" d="M919.08,1109.06s41.61,29.11-14.77,28.08-156.85-43.06-156.85-43.06"/><path class="cls-1" d="M912,1137.17s84.27,22.31,21.91,29.59-180.38-29.59-180.38-29.59"/><path class="cls-1" d="M933.87,1166.76s95.51,32.92,30.92,32.92-168.13-8.21-168.13-8.21-69.71-13.32-92.26-35.88"/><path class="cls-1" d="M916.12,1198.59s145,31.84,55.85,39S733.1,1212,733.1,1212s-58.38-18.45-63-34.35"/><path class="cls-1" d="M972,1237.61s75.86,16.4,9.22,20.5c0,0-80-1-122,12.3s-189.12-31.78-189.12-31.78-27.19-16.4-35.39-43.05"/><path class="cls-1" d="M859.2,1270.41s185.55,0,185.55,31.78c0,0-40-3.91-92.77,16s-296-45.3-296-45.3-105.36-49.8-117.65-170.68c0,0,148.62,19.56,170.17-114.73,0,0,25.65-52.29,158.92-25.63,0,0,9.91,21.53-55.53,25.63s-55.19,6.15-55.19,6.15,85.14,25.77,111.26,26.72c0,0,24,17.36-10.3,16.33s-98.91-14.35-98.91-14.35,130.2,23.58,152.75,49.21-12.3,19.48-12.3,19.48-115.84-54.34-137.37-46.13"/><path class="cls-1" d="M550.62,743.48S565,658.39,557.8,618.41s-19.49-24.81-19.49-24.81S530,589.36,511.1,803.79c0,0-4,72.82,19.83,102.62"/><path class="cls-1" d="M516.19,748.59s7.6-125,0-147.57-24.6-32.14-24.6-32.14-17.85-28.39-9.65,80.28c0,0,1.84,37.46-2.16,121.25S504.49,919.8,504.49,919.8"/><path class="cls-1" d="M481.78,717.22s-9.16-94.71-31.15-133.16-29.74-18.53-29.74-18.53,30.29,197.42,19,232.28c0,0-3.08,91.24,31.78,122"/><path class="cls-1" d="M438.57,706.08s-24.28-90.65-47.35-115.3-21,0-21,0,34.85,32.75,25.62,166,30.76,205,30.76,205,38.52,59.6,104.35,58.5c0,0,97.61-8.27,180.64-222.53,0,0,28.71-46.25,0-53.37,0,0-6.15-21.47-67.66,130.26,0,0-15.37,32.8-32.8,48.18,0,0,68.68-130.2,77.91-207.08s-27.53,0-27.53,0S614.18,882.9,605,880.85c0,0,50.37-139.08,44.66-199.23s-22,15.84-22,15.84-9.35,78.82-34,89.07c0,0-14.35-3.07-11.28,101.49,0,0-3.07-92.26,15.38-169.15,0,0,19.48-138.4-22.55-70.73,0,0-4.1,54.33-24.61,95.34s5.13,110.71,5.13,110.71,7.18,8.21,1,59.46"/><path class="cls-1" d="M645.75,579.82c32.6,8.57,43.12,0,43.12,0,12.14-28.34,40.23-43,40.23-43,29.83,6.63,77.3,43.6,77.3,43.6S707.47,421.57,630.59,410.3s-101.44-29.73-237.82,0c0,0-119.65,57.5-150,120s-127,106.41-151,100.34S51.28,601,51.28,601"/><path class="cls-1" d="M729.1,536.87s-62.63-5.6-77-27.13c0,0,1-41-15.37-47.16s-52.29-5.13-52.29-5.13"/><path class="cls-1" d="M559.81,548.19c36.86-7.69,34.07-11.32,34.07-11.32,21.72-33.35,58.23-27.13,58.23-27.13s-55.35-34.86-124-30.76c0,0-18.45,29.73-57.41,40"/><path class="cls-1" d="M528.07,479s-72.79-7.17-120,10.25c0,0-56.68,3.26-78.06,24.19s-27.43,34-72.07,66.4-18,38.59-72.33,91.89-30.75,20.51-47.15,57.41-46.75,19.47-46.75,19.47"/><path class="cls-1" d="M408.12,489.23s-23.87-32.39-93.43,7.9"/><path class="cls-1" d="M357.38,498.62s-25.12,15.22-30.24,73.65c0,0,5.12,8.22-23.58,28.71"/><path class="cls-1" d="M258,579.82s-18,46.29-14.92,110.1"/><path class="cls-1" d="M209.93,644.58s-25.29-19-54,23S117,694.27,117,694.27"/><path class="cls-1" d="M91.76,630.63s-22,44.52-55.3,66.38"/><path class="cls-1" d="M173.37,601S137.48,614.37,117,570.77"/><path class="cls-1" d="M158.52,549.8s26.46,12.54,51.41-21.45c0,0,8.86-9.29,32.79,1.94"/><path class="cls-1" d="M299.64,467.87s-28.57-7-56.92,4.62-42.1-6.71-42.1-6.71"/><path class="cls-1" d="M428.84,403.06s-41.3-2.4-58.69-28.85c0,0-19.95-8.4-39.68,0"/><path class="cls-1" d="M528.07,394.2s-13.65,24.8-46.29,30.7-35.67,32.49-35.67,32.49"/><path class="cls-1" d="M576.35,400.65s-26.58-15.7-41-45.06S479.4,334.9,479.4,334.9"/><path class="cls-1" d="M630.59,410.3s-21.53,25.63-62.54,31.78"/><path class="cls-1" d="M674.17,429.38s6.65-16.41-22.06-35.18-39-25.34-52.79-60.49"/><path class="cls-1" d="M741.48,492.72s-5.41-41.18-23.3-63.34-16.55-35.18-16.55-35.18"/><path class="cls-1" d="M346.61,138.63c30.76,20.5,74.28,35.35,74.28,35.35,66.08-8.73,70.7,37.25,70.7,37.25,14.77,77.73,165.19,69.94,165.19,69.94,130.75,41.05,127.61,176.22,127.61,176.22-15.35,76.82,22,123.08,22,123.08S846,368.86,820.8,333.71c0,0-11.48-74.13-79.32-115.64s-80.14-30.51-110.89-33.45-27.49-61-54.24-73-53.17-3.2-76.87-9.12-38.32-22.81-38.32-22.81"/><path class="cls-1" d="M420.89,174s-23-3.57-26.09-73.29c0,0,1.49-14.28-15.14-21"/><path class="cls-1" d="M460.67,176.4s5.43-42.88-20-49.56"/><path class="cls-1" d="M561.39,271s-39.23,11.1-61.91-5.79-38.32-9.12-38.32-9.12"/><path class="cls-1" d="M724.33,318.8s-30.92-11.53-62.84,0-30.9-2.56-30.9-2.56"/><path class="cls-1" d="M751.16,349.65s7.77-37.22-22.06-66.2c0,0-15-2.67-16.25-29.15"/><path class="cls-1" d="M781.92,429.38s-16.68-30.76-40.44-35.18-28.63-23.72-28.63-23.72"/><path class="cls-1" d="M559.81,106.57s-58.15-27.7-60.33-55.75,0-39.53,0-39.53"/><path class="cls-1" d="M602,151.62s8.07-15.6-2.69-45.05-11.42-37.5-11.42-37.5"/><path class="cls-1" d="M701.61,196.51s-32.41,14.11-64.53,10.92"/><path class="cls-1" d="M741.48,218.07s-13,17.29-19.93-66.45c0,0-27.86-7.4-19.94-45.05"/><path class="cls-1" d="M783,254.3s12.85-36-1.11-69.68"/><path class="cls-1" d="M826.61,349.65S849,329.31,838.7,291.38s2.69-49,2.69-49"/><path class="cls-1" d="M775.19,330.09s13.85-1.49,24.33,40.39,29.66,39.82,29.66,39.82"/><path class="cls-1" d="M823,471.06s10.88-3.47,18.44-68c0,0,.05-36.15,43.27-53.41"/><path class="cls-1" d="M1270.85,1036.67s-4.66,24.61-16.73-82.4S1178,811.14,1162.65,786.53s6.15-180.43,6.33-215.76-7.36-158.42-104.91-167.71-95.18,2.11-167.25,40.4-90.42,137-90.42,137,10.43-105.23,127.47-101.82,146.82,131,142.69,160.51,12.28,14.1-7.2,143.27c0,0-11.2,45,67.7,124,0,0,3,16.47,0,101.56,0,0,11.13,70.76,60.92,107.66"/><path class="cls-1" d="M1254.12,954.27s45.43,35,41.05,84.85"/><path class="cls-1" d="M1227.2,866.37s40.88,11.4,54.29,53.43c0,0,15.46,22.56,38,20.51"/><path class="cls-1" d="M1199.83,827.46S1189.3,894.18,1218,933.13"/><path class="cls-1" d="M1158.33,707.56s14,49.9,49.65,65.46"/><path class="cls-1" d="M1169,570.77s-53.18,77.29-42.57,136.79"/><path class="cls-1" d="M1150.68,471.06s33.94-29.73,57.3,53.68c0,0-4.39,15.76,19.22,23.45"/><path class="cls-1" d="M996.05,400.65s39.83-53,83.22-19.11c0,0,10.27,16,39.14,12.66"/><path class="cls-1" d="M888.61,448.24s-11-29.12,31-54,24.64-29,24.64-29"/><path class="cls-1" d="M968.37,406.25s26.15,13.27,35.38,33.78,37.93,13.32,37.93,13.32"/><path class="cls-1" d="M1067,584.06s7.47,21.67-25.33,85.93c0,0-5.13,13.16,0,57.68"/><path class="cls-1" d="M1074.82,742.67S1116.07,771,1125,827.46"/><path class="cls-1" d="M1091.65,851.31s24.47,67.7,8.26,103,5.55,57.57,5.55,57.57"/><path class="cls-1" d="M1137,1008s42.34,8.09,51.92,57.86"/><path class="cls-1" d="M1005,500.3s38.34-4.73,69.79,13.12c0,0,17.53,8.8,30.64,0"/><path class="cls-1" d="M947.87,479.69s44.59,11.52,48.18,57.18"/><path class="cls-1" d="M871.15,489.86s20.76-6.3,46.44,32.42c0,0,6.17,13,30.28,14.59"/></svg>