<svg id="Layer_1" data-name="Layer 1" xmlns="http://www.w3.org/2000/svg" width="1920" height="1080" viewBox="0 0 1920 1080"><defs><style>.cls-1{fill:#eae7e4;}.cls-2{fill:#af7171;}.cls-3,.cls-5{fill:none;stroke:#af7171;stroke-miterlimit:10;}.cls-3{stroke-width:3px;}.cls-4{fill:#f2ebbb;opacity:0.64;}</style></defs><rect class="cls-1" width="1920" height="1080"/><path class="cls-2" d="M716.49,124.52h-17v51h-32.4v-138h49.4c28.2,0,50.4,12.6,50.4,43.4S744.69,124.52,716.49,124.52Zm-4.6-62h-12.6v37h12.6c12.6,0,22.2-4.4,22.2-18.6C734.09,66.92,724.29,62.52,711.89,62.52Z"/><path class="cls-3" d="M927.68,177.92c-41,0-73.2-26.6-73.2-71.2s32.2-71.4,73.2-71.4,73.2,26.8,73.2,71.4S968.68,177.92,927.68,177.92Zm0-115c-23,0-40.4,16.6-40.4,43s17.4,43.2,40.4,43.2,40.4-16.8,40.4-43.2C968.08,79.72,950.68,62.92,927.68,62.92Z"/><path class="cls-2" d="M1169.48,175.52l-29-52.8h-10.2v52.8h-32.4v-138h49.6c26.4,0,51.6,11.2,51.6,41.4,0,26.2-16.8,36.4-27,39.6l35,57Zm-26.6-113h-12.8v35.4h12.8c12,0,23.6-3.6,23.6-17.8C1166.48,65.72,1154.88,62.52,1142.88,62.52Z"/><path class="cls-3" d="M722.94,282.26v112.4h-32.4V282.26h-35.6V256.67h103.6v25.59Z"/><path class="cls-2" d="M713.94,598.06c-41,0-73.2-26.6-73.2-71.2s32.2-71.4,73.2-71.4,73.2,26.8,73.2,71.4S754.94,598.06,713.94,598.06Zm0-115c-23,0-40.4,16.6-40.4,43s17.4,43.2,40.4,43.2,40.4-16.8,40.4-43.2C754.34,499.86,736.94,483.06,713.94,483.06Z"/><path class="cls-2" d="M1138.94,283.46v33.8h50.8v25.8h-50.8v52.6h-32.2v-138h86.2v25.79Z"/><path class="cls-3" d="M1106.74,595.66v-138h32.2V568.86h47.8v26.8Z"/><path class="cls-3" d="M732.15,796.06v-138h32.4v138Z"/><path class="cls-2" d="M1052.94,798.46c-41,0-73.2-26.6-73.2-71.2s32.2-71.4,73.2-71.4,73.2,26.8,73.2,71.4S1093.94,798.46,1052.94,798.46Zm0-115c-23,0-40.4,16.6-40.4,43s17.4,43.2,40.4,43.2,40.4-16.8,40.4-43.2C1093.34,700.26,1075.94,683.46,1052.94,683.46Z"/><rect class="cls-1" x="743" y="97" width="369" height="595"/><rect class="cls-4" x="1003" y="539" width="153" height="153"/><path d="M594.45,331.29h-3.08l-5.12-13.81h3.44l3.24,9.5,3.22-9.5h3.42Z"/><path d="M592.91,351.53c-4.1,0-7.32-2.67-7.32-7.13s3.22-7.14,7.32-7.14,7.32,2.68,7.32,7.14S597,351.53,592.91,351.53Zm0-11.51a4.32,4.32,0,1,0,4,4.3A4,4,0,0,0,592.91,340Z"/><path d="M589.44,371.29V357.48h3.22V368.6h4.78v2.69Z"/><path d="M597.37,389.87a6.94,6.94,0,0,1-8.94,0,6.05,6.05,0,0,1-1.3-4.35v-8h3.26v8a3.49,3.49,0,0,0,.54,2.3,2.71,2.71,0,0,0,4,0,3.49,3.49,0,0,0,.54-2.3v-8h3.26v8A6,6,0,0,1,597.37,389.87Z"/><path d="M597.73,411.29l-.54-9.41h0l-3,9.41h-2.56l-3-9.41h-.06l-.5,9.41h-3.18l1-13.81H590l2.88,9.08h0l2.84-9.08h4.1l1,13.81Z"/><path d="M588.61,431.29V417.48h8.94v2.58h-5.72v2.82h5.4v2.58h-5.4v3.21h5.9v2.62Z"/><path d="M592.91,467.28c-4,0-5.72-3.48-5.72-7.12s1.7-7.12,5.72-7.12,5.72,3.48,5.72,7.12S596.93,467.28,592.91,467.28Zm0-11.54c-1.78,0-2.54,1.88-2.54,4.36s.76,4.4,2.54,4.4,2.54-1.92,2.54-4.4S594.69,455.74,592.91,455.74Z"/><path d="M592,487V475.46h-2.5v-2.22h5.62V487Z"/><path d="M1247.21,386.29l-.38-2,4.68-4.23c1.3-1.18,2.08-2.08,2.08-3.26a2,2,0,0,0-2.22-1.94,4.49,4.49,0,0,0-3.34,1.86l-1.36-2.12a5.93,5.93,0,0,1,5-2.28c3.12,0,5,1.66,5,4.08s-1.8,3.86-2.9,4.84l-2.86,2.58h6.4v2.51Z"/><path d="M1251.91,406.53c-4,0-5.72-3.49-5.72-7.13s1.7-7.12,5.72-7.12,5.72,3.48,5.72,7.12S1255.93,406.53,1251.91,406.53Zm0-11.55c-1.78,0-2.54,1.88-2.54,4.36s.76,4.4,2.54,4.4,2.54-1.92,2.54-4.4S1253.69,395,1251.91,395Z"/><path d="M1247.21,426.29l-.38-2,4.68-4.23c1.3-1.18,2.08-2.08,2.08-3.26a2,2,0,0,0-2.22-1.94,4.49,4.49,0,0,0-3.34,1.86l-1.36-2.12a5.93,5.93,0,0,1,5-2.28c3.12,0,5,1.66,5,4.08s-1.8,3.86-2.9,4.84l-2.86,2.58h6.4v2.51Z"/><path d="M1251,446.29V434.7h-2.5v-2.22h5.62v13.81Z"/><path d="M852,862.35v-13.8h8.94v2.58h-5.72V854h5.4v2.58h-5.4v3.2h5.9v2.62Z"/><path d="M875.41,862.35l-.54-9.4h0l-3,9.4h-2.56l-3-9.4h-.06l-.5,9.4h-3.18l1-13.8h4.08l2.88,9.08h0l2.84-9.08h4.1l1,13.8Z"/><path d="M880.59,862.35v-13.8h3.24v13.8Z"/><path d="M886.35,862.35v-13.8h3.22v11.12h4.78v2.68Z"/><path d="M895.81,862.35v-13.8h3.24v13.8Z"/><path d="M901.57,862.35v-13.8h8.94v2.58h-5.72V854h5.4v2.58h-5.4v3.2h5.9v2.62Z"/><path d="M920.59,862.59a7.48,7.48,0,0,1-4.9-2.08l1.6-2.36a5.69,5.69,0,0,0,3.6,1.74c1,0,1.84-.5,1.84-1.42s-1-1.3-1.62-1.52-1.64-.58-2.1-.78a5.39,5.39,0,0,1-1.64-1,3.41,3.41,0,0,1-1.08-2.66,3.89,3.89,0,0,1,1.44-3,5.64,5.64,0,0,1,3.64-1.1,6.8,6.8,0,0,1,4.38,1.7l-1.38,2.26a4.76,4.76,0,0,0-3.08-1.4c-1,0-1.8.4-1.8,1.24s.78,1.16,1.4,1.4,1.62.6,2.06.78c1.76.64,3,1.78,3,3.78C926,861.13,923.27,862.59,920.59,862.59Z"/><path d="M934.21,862.59c-4.06,0-7.24-2.68-7.24-7.12s3.22-7.12,7.24-7.12a6.74,6.74,0,0,1,4.74,1.56l-1,2.68a5.29,5.29,0,0,0-3.56-1.44,4.25,4.25,0,0,0,0,8.5,5.09,5.09,0,0,0,3.72-1.46l1.08,2.52A6.55,6.55,0,0,1,934.21,862.59Z"/><path d="M949.45,862.35v-5.78h-5.54v5.78h-3.24v-13.8h3.24v5.34h5.54v-5.34h3.24v13.8Z"/><path d="M965.35,860.93a6.91,6.91,0,0,1-8.94,0,6,6,0,0,1-1.3-4.34v-8h3.26v8a3.49,3.49,0,0,0,.54,2.3,2.71,2.71,0,0,0,4,0,3.49,3.49,0,0,0,.54-2.3v-8h3.26v8A5.93,5.93,0,0,1,965.35,860.93Z"/><path d="M969.09,862.35v-13.8h3.22v11.12h4.78v2.68Z"/><path d="M982.87,851.11v11.24h-3.24V851.11h-3.56v-2.56h10.36v2.56Z"/><path d="M986.77,862.35V860l6.76-8.84H987v-2.62h10.74v2.2l-6.82,8.92h7v2.68Z"/><path class="cls-5" d="M851.52,503.5s11.31-4.55,22.44,0C874,503.5,878.55,514.88,851.52,503.5Z"/><path class="cls-5" d="M879.67,505s41,1,44.68-28.83c0,0,3.41-12.23,25-24.75,0,0,8.54-8,4-30.15,0,0,.85-6,8.25-13.37,0,0,3.41-4.84,0-40,0,0-5.55,4.83-4.41,27,0,0-10.81,11.67-10.81,47.23,0,0,1.42,11.66-20.49,19.34,0,0-9.95,26.74-21.9,31.86S899.15,494.73,879.67,505Z"/><path class="cls-5" d="M841.13,505s15.66,2.32,27.6,20c0,0-13.26-9.15-23.55-10,0,0,21.82,15.53,17.71,19.73,0,0-22.6-8.61-25.73-17.15l15.78,27s-27.16-16.73-27.45-25.27c0,0,.29,14.23,2.28,18.49,0,0-7.68-8.25-12.52-25.32,0,0-3.7,3.7-10,1.71,0,0,4-7.68,3.13-21.34,0,0-2.27-6.25,21.34-3.13,0,0,4,2.28,3.13-8.81,0,0,7.68,4.82,4.12,13.22,0,0,16.93.67,14.51-9.41,0,0,8.39,5.86-4.12,15C847.4,499.66,842.82,501,841.13,505Z"/><path class="cls-5" d="M810.42,490s-2.85-7.7,1.13-11.68c0,0,3.75,10.5,5.86,10.51l.69-9.66a12.81,12.81,0,0,1,7.07,10"/><path class="cls-5" d="M820.37,494.54s-4.55,5.12,1.71,8.82"/><path class="cls-5" d="M991.71,509.49s7.89,7-5.77,4.68-35.28-10.53-35.28-10.53a5.93,5.93,0,0,0-6.56,0"/><path class="cls-5" d="M992.88,514.63s11.55,8.07-4.1,7.79-43.52-11.95-43.52-11.95"/><path class="cls-5" d="M990.91,522.43s23.38,6.19,6.08,8.21-50.06-8.21-50.06-8.21"/><path class="cls-5" d="M997,530.64s26.5,9.13,8.58,9.13-46.66-2.27-46.66-2.27-19.34-3.7-25.6-10"/><path class="cls-5" d="M992.06,539.47s40.25,8.84,15.5,10.83-66.28-7.11-66.28-7.11-16.21-5.12-17.49-9.53"/><path class="cls-5" d="M1007.56,550.3s21,4.55,2.56,5.69c0,0-22.19-.29-33.85,3.41s-52.48-8.82-52.48-8.82S916.24,546,914,538.64"/><path class="cls-5" d="M976.27,559.4s51.49,0,51.49,8.82c0,0-11.1-1.08-25.75,4.44s-82.14-12.57-82.14-12.57-29.24-13.82-32.65-47.37c0,0,41.24,5.43,47.22-31.83,0,0,7.12-14.51,44.1-7.12,0,0,2.75,6-15.41,7.12s-15.31,1.7-15.31,1.7,23.62,7.15,30.87,7.42c0,0,6.67,4.82-2.86,4.53s-27.44-4-27.44-4,36.13,6.54,42.39,13.65-3.42,5.41-3.42,5.41-32.14-15.08-38.12-12.8"/><path class="cls-5" d="M890.64,413.18s4-23.61,2-34.71-5.41-6.88-5.41-6.88-2.3-1.18-7.55,58.33c0,0-1.1,20.2,5.5,28.47"/><path class="cls-5" d="M881.08,414.6s2.11-34.68,0-41a16.83,16.83,0,0,0-6.82-8.92s-5-7.88-2.68,22.28c0,0,.51,10.39-.6,33.64a101.79,101.79,0,0,0,6.86,41.46"/><path class="cls-5" d="M871.53,405.89s-2.54-26.28-8.64-36.95-8.25-5.14-8.25-5.14,8.4,54.78,5.27,64.46c0,0-.85,25.32,8.82,33.85"/><path class="cls-5" d="M859.54,402.8s-6.73-25.15-13.14-32-5.83,0-5.83,0,9.67,9.08,7.11,46.07,8.54,56.89,8.54,56.89,10.69,16.54,28.95,16.24c0,0,27.09-2.3,50.13-61.75,0,0,8-12.84,0-14.81,0,0-1.7-6-18.77,36.14,0,0-4.27,9.11-9.11,13.37,0,0,19.06-36.13,21.62-57.46s-7.64,0-7.64,0-13.12,46.37-15.68,45.8c0,0,14-38.6,12.39-55.28s-6.1,4.39-6.1,4.39-2.6,21.87-9.42,24.72c0,0-4-.86-3.13,28.16,0,0-.86-25.6,4.26-46.94,0,0,5.41-38.4-6.25-19.63,0,0-1.14,15.08-6.83,26.46s1.42,30.72,1.42,30.72,2,2.28.29,16.5"/><path class="cls-5" d="M917,367.76c9,2.38,12,0,12,0,3.37-7.86,11.17-11.91,11.17-11.91,8.27,1.84,21.45,12.1,21.45,12.1s-27.46-44.1-48.79-47.23-28.15-8.25-66,0c0,0-33.21,16-41.64,33.3S770,383.55,763.3,381.86s-11.23-8.22-11.23-8.22"/><path class="cls-5" d="M940.17,355.85s-17.39-1.56-21.37-7.53c0,0,.29-11.38-4.27-13.09s-14.5-1.42-14.5-1.42"/><path class="cls-5" d="M893.19,359c10.23-2.14,9.45-3.14,9.45-3.14a16.77,16.77,0,0,1,16.16-7.53s-15.36-9.68-34.42-8.54a28.32,28.32,0,0,1-15.93,11.1"/><path class="cls-5" d="M884.38,339.78s-20.2-2-33.28,2.85c0,0-15.73.9-21.67,6.71s-7.61,9.42-20,18.42-5,10.71-20.07,25.51-8.53,5.69-13.08,15.93-13,5.4-13,5.4"/><path class="cls-5" d="M851.1,342.63s-6.63-9-25.93,2.19"/><path class="cls-5" d="M837,345.23s-7,4.23-8.39,20.44c0,0,1.42,2.28-6.54,8"/><path class="cls-5" d="M809.43,367.76a81.62,81.62,0,0,0-4.14,30.56"/><path class="cls-5" d="M796.1,385.74s-7-5.28-15,6.39-10.81,7.39-10.81,7.39"/><path class="cls-5" d="M763.3,381.86s-6.11,12.36-15.34,18.43"/><path class="cls-5" d="M786,373.64s-10,3.71-15.65-8.39"/><path class="cls-5" d="M781.83,359.44s7.34,3.48,14.27-6c0,0,2.45-2.57,9.1.54"/><path class="cls-5" d="M821,336.7A28.37,28.37,0,0,0,805.2,338c-7.87,3.23-11.69-1.86-11.69-1.86"/><path class="cls-5" d="M856.84,318.72s-11.46-.67-16.28-8a15.51,15.51,0,0,0-11,0"/><path class="cls-5" d="M884.38,316.26a19,19,0,0,1-12.85,8.52c-9.06,1.63-9.89,9-9.89,9"/><path class="cls-5" d="M897.78,318.05a32.74,32.74,0,0,1-11.38-12.51c-4-8.15-15.53-5.74-15.53-5.74"/><path class="cls-5" d="M912.83,320.72a29.62,29.62,0,0,1-17.36,8.82"/><path class="cls-5" d="M924.92,326s1.85-4.56-6.12-9.76-10.81-7-14.65-16.79"/><path class="cls-5" d="M943.6,343.59s-1.5-11.42-6.46-17.57-4.6-9.76-4.6-9.76"/><path class="cls-5" d="M834,245.33c8.53,5.69,20.61,9.81,20.61,9.81,18.33-2.42,19.62,10.34,19.62,10.34,4.1,21.57,45.84,19.41,45.84,19.41,36.28,11.39,35.41,48.9,35.41,48.9-4.26,21.32,6.11,34.16,6.11,34.16s11-58.73,4-68.48c0,0-3.18-20.57-22-32.09s-22.24-8.47-30.77-9.28-7.63-16.93-15.05-20.25S883,237,876.45,235.31A22.62,22.62,0,0,1,865.81,229"/><path class="cls-5" d="M854.64,255.14s-6.39-1-7.24-20.33c0,0,.41-4-4.2-5.82"/><path class="cls-5" d="M865.68,255.82s1.5-11.9-5.55-13.75"/><path class="cls-5" d="M893.63,282.07s-10.89,3.07-17.18-1.61-10.64-2.53-10.64-2.53"/><path class="cls-5" d="M938.84,295.33s-8.58-3.2-17.44,0-8.57-.71-8.57-.71"/><path class="cls-5" d="M946.29,303.89a21.2,21.2,0,0,0-6.12-18.37s-4.16-.74-4.51-8.09"/><path class="cls-5" d="M954.82,326s-4.63-8.54-11.22-9.76a9.77,9.77,0,0,1-7.94-6.59"/><path class="cls-5" d="M893.19,236.44s-16.14-7.69-16.74-15.47,0-11,0-11"/><path class="cls-5" d="M904.9,248.94s2.24-4.33-.75-12.5S901,226,901,226"/><path class="cls-5" d="M932.54,261.4s-9,3.91-17.91,3"/><path class="cls-5" d="M943.6,267.38s-3.62,4.8-5.53-18.44c0,0-7.73-2.05-5.53-12.5"/><path class="cls-5" d="M955.13,277.43s3.57-10-.31-19.33"/><path class="cls-5" d="M967.22,303.89s6.2-5.64,3.36-16.17.74-13.59.74-13.59"/><path class="cls-5" d="M953,298.47s3.84-.42,6.75,11.2,8.23,11.05,8.23,11.05"/><path class="cls-5" d="M966.21,337.59s3-1,5.11-18.87c0,0,0-10,12-14.83"/><path class="cls-5" d="M1090.5,494.54s-1.29,6.83-4.64-22.87-21.12-39.72-25.39-46.54,1.71-50.07,1.76-59.88-2-44-29.11-46.53-26.41.58-46.41,11.21-25.09,38-25.09,38,2.89-29.21,35.37-28.26,40.74,36.36,39.6,44.54,3.4,3.91-2,39.76c0,0-3.11,12.48,18.78,34.4,0,0,.85,4.57,0,28.19,0,0,3.09,19.63,16.91,29.87"/><path class="cls-5" d="M1085.86,471.67s12.6,9.72,11.39,23.55"/><path class="cls-5" d="M1078.39,447.28s11.34,3.17,15.06,14.83c0,0,4.29,6.26,10.55,5.69"/><path class="cls-5" d="M1070.79,436.49s-2.92,18.51,5,29.32"/><path class="cls-5" d="M1059.27,403.21s3.89,13.85,13.78,18.17"/><path class="cls-5" d="M1062.23,365.25s-14.76,21.45-11.81,38"/><path class="cls-5" d="M1057.15,337.59s9.42-8.25,15.9,14.89c0,0-1.22,4.37,5.34,6.51"/><path class="cls-5" d="M1014.24,318.05s11.06-14.71,23.1-5.31c0,0,2.85,4.46,10.86,3.52"/><path class="cls-5" d="M984.43,331.25s-3.06-8.08,8.61-15,6.84-8.05,6.84-8.05"/><path class="cls-5" d="M1006.56,319.6s7.26,3.68,9.82,9.37,10.53,3.7,10.53,3.7"/><path class="cls-5" d="M1033.93,368.94s2.08,6-7,23.85c0,0-1.43,3.65,0,16"/><path class="cls-5" d="M1036.1,413A37.15,37.15,0,0,1,1050,436.49"/><path class="cls-5" d="M1040.77,443.1s6.79,18.79,2.3,28.57,1.53,16,1.53,16"/><path class="cls-5" d="M1053.36,486.58s11.75,2.24,14.41,16.05"/><path class="cls-5" d="M1016.73,345.7s10.65-1.31,19.37,3.64c0,0,4.87,2.44,8.5,0"/><path class="cls-5" d="M1000.87,340s12.38,3.2,13.37,15.87"/><path class="cls-5" d="M979.58,342.8s5.76-1.75,12.89,9c0,0,1.71,3.61,8.4,4.05"/></svg>