<svg id="Layer_1" data-name="Layer 1" xmlns="http://www.w3.org/2000/svg" width="1920" height="1080" viewBox="0 0 1920 1080"><defs><style>.cls-1{fill:#878db0;}.cls-2{fill:#e6cacc;}.cls-3{fill:none;stroke:#e6cacc;stroke-miterlimit:10;stroke-width:3px;}.cls-4{fill:#fff;}</style></defs><rect class="cls-1" x="-1" width="1920" height="1080"/><path class="cls-2" d="M726.49,145.52h-17v51h-32.4v-138h49.4c28.2,0,50.4,12.6,50.4,43.4S754.69,145.52,726.49,145.52Zm-4.6-62h-12.6v37h12.6c12.6,0,22.2-4.4,22.2-18.6C744.09,87.92,734.29,83.52,721.89,83.52Z"/><path class="cls-3" d="M937.68,198.92c-41,0-73.2-26.6-73.2-71.2s32.2-71.4,73.2-71.4,73.2,26.8,73.2,71.4S978.68,198.92,937.68,198.92Zm0-115c-23,0-40.4,16.6-40.4,43s17.4,43.2,40.4,43.2,40.4-16.8,40.4-43.2C978.08,100.72,960.68,83.92,937.68,83.92Z"/><path class="cls-2" d="M1179.48,196.52l-29-52.8h-10.2v52.8h-32.4v-138h49.6c26.4,0,51.6,11.2,51.6,41.4,0,26.2-16.8,36.4-27,39.6l35,57Zm-26.6-113h-12.8v35.4h12.8c12,0,23.6-3.6,23.6-17.8C1176.48,86.72,1164.88,83.52,1152.88,83.52Z"/><path class="cls-3" d="M732.94,303.26v112.4h-32.4V303.26h-35.6V277.67h103.6v25.59Z"/><path class="cls-2" d="M723.94,619.06c-41,0-73.2-26.6-73.2-71.2s32.2-71.4,73.2-71.4,73.2,26.8,73.2,71.4S764.94,619.06,723.94,619.06Zm0-115c-23,0-40.4,16.6-40.4,43s17.4,43.2,40.4,43.2,40.4-16.8,40.4-43.2C764.34,520.86,746.94,504.06,723.94,504.06Z"/><path class="cls-2" d="M1148.94,304.46v33.8h50.8v25.8h-50.8v52.6h-32.2v-138h86.2v25.79Z"/><path class="cls-3" d="M1116.74,616.66v-138h32.2V589.86h47.8v26.8Z"/><path class="cls-3" d="M760.15,817.06v-138h32.4v138Z"/><path class="cls-2" d="M1080.94,819.46c-41,0-73.2-26.6-73.2-71.2s32.2-71.4,73.2-71.4,73.2,26.8,73.2,71.4S1121.94,819.46,1080.94,819.46Zm0-115c-23,0-40.4,16.6-40.4,43s17.4,43.2,40.4,43.2,40.4-16.8,40.4-43.2C1121.34,721.26,1103.94,704.46,1080.94,704.46Z"/><path class="cls-4" d="M604.45,352.29h-3.08l-5.12-13.81h3.44l3.24,9.5,3.22-9.5h3.42Z"/><path class="cls-4" d="M602.91,372.53c-4.1,0-7.32-2.67-7.32-7.13s3.22-7.14,7.32-7.14,7.32,2.68,7.32,7.14S607,372.53,602.91,372.53Zm0-11.51a4.32,4.32,0,1,0,4,4.3A4,4,0,0,0,602.91,361Z"/><path class="cls-4" d="M599.44,392.29V378.48h3.22V389.6h4.78v2.69Z"/><path class="cls-4" d="M607.37,410.87a6.94,6.94,0,0,1-8.94,0,6.05,6.05,0,0,1-1.3-4.35v-8h3.26v8a3.49,3.49,0,0,0,.54,2.3,2.71,2.71,0,0,0,4,0,3.49,3.49,0,0,0,.54-2.3v-8h3.26v8A6,6,0,0,1,607.37,410.87Z"/><path class="cls-4" d="M607.73,432.29l-.54-9.41h0l-3,9.41h-2.56l-3-9.41h-.06l-.5,9.41h-3.18l1-13.81H600l2.88,9.08h0l2.84-9.08h4.1l1,13.81Z"/><path class="cls-4" d="M598.61,452.29V438.48h8.94v2.58h-5.72v2.82h5.4v2.58h-5.4v3.21h5.9v2.62Z"/><path class="cls-4" d="M602.91,488.28c-4,0-5.72-3.48-5.72-7.12s1.7-7.12,5.72-7.12,5.72,3.48,5.72,7.12S606.93,488.28,602.91,488.28Zm0-11.54c-1.78,0-2.54,1.88-2.54,4.36s.76,4.4,2.54,4.4,2.54-1.92,2.54-4.4S604.69,476.74,602.91,476.74Z"/><path class="cls-4" d="M602,508V496.46h-2.5v-2.22h5.62V508Z"/><path class="cls-4" d="M1257.21,407.29l-.38-2,4.68-4.23c1.3-1.18,2.08-2.08,2.08-3.26a2,2,0,0,0-2.22-1.94,4.49,4.49,0,0,0-3.34,1.86l-1.36-2.12a5.93,5.93,0,0,1,5-2.28c3.12,0,5,1.66,5,4.08s-1.8,3.86-2.9,4.84l-2.86,2.58h6.4v2.51Z"/><path class="cls-4" d="M1261.91,427.53c-4,0-5.72-3.49-5.72-7.13s1.7-7.12,5.72-7.12,5.72,3.48,5.72,7.12S1265.93,427.53,1261.91,427.53Zm0-11.55c-1.78,0-2.54,1.88-2.54,4.36s.76,4.4,2.54,4.4,2.54-1.92,2.54-4.4S1263.69,416,1261.91,416Z"/><path class="cls-4" d="M1257.21,447.29l-.38-2,4.68-4.23c1.3-1.18,2.08-2.08,2.08-3.26a2,2,0,0,0-2.22-1.94,4.49,4.49,0,0,0-3.34,1.86l-1.36-2.12a5.93,5.93,0,0,1,5-2.28c3.12,0,5,1.66,5,4.08s-1.8,3.86-2.9,4.84l-2.86,2.58h6.4v2.51Z"/><path class="cls-4" d="M1261,467.29V455.7h-2.5v-2.22h5.62v13.81Z"/><path class="cls-4" d="M862,853.35v-13.8h8.94v2.58h-5.72V845h5.4v2.58h-5.4v3.2h5.9v2.62Z"/><path class="cls-4" d="M885.41,853.35l-.54-9.4h0l-3,9.4h-2.56l-3-9.4h-.06l-.5,9.4h-3.18l1-13.8h4.08l2.88,9.08h0l2.84-9.08h4.1l1,13.8Z"/><path class="cls-4" d="M890.59,853.35v-13.8h3.24v13.8Z"/><path class="cls-4" d="M896.35,853.35v-13.8h3.22v11.12h4.78v2.68Z"/><path class="cls-4" d="M905.81,853.35v-13.8h3.24v13.8Z"/><path class="cls-4" d="M911.57,853.35v-13.8h8.94v2.58h-5.72V845h5.4v2.58h-5.4v3.2h5.9v2.62Z"/><path class="cls-4" d="M930.59,853.59a7.48,7.48,0,0,1-4.9-2.08l1.6-2.36a5.69,5.69,0,0,0,3.6,1.74c1,0,1.84-.5,1.84-1.42s-1-1.3-1.62-1.52-1.64-.58-2.1-.78a5.39,5.39,0,0,1-1.64-1,3.41,3.41,0,0,1-1.08-2.66,3.89,3.89,0,0,1,1.44-3,5.64,5.64,0,0,1,3.64-1.1,6.8,6.8,0,0,1,4.38,1.7l-1.38,2.26a4.76,4.76,0,0,0-3.08-1.4c-1,0-1.8.4-1.8,1.24s.78,1.16,1.4,1.4,1.62.6,2.06.78c1.76.64,3,1.78,3,3.78C936,852.13,933.27,853.59,930.59,853.59Z"/><path class="cls-4" d="M944.21,853.59c-4.06,0-7.24-2.68-7.24-7.12s3.22-7.12,7.24-7.12a6.74,6.74,0,0,1,4.74,1.56l-1,2.68a5.29,5.29,0,0,0-3.56-1.44,4.25,4.25,0,0,0,0,8.5,5.09,5.09,0,0,0,3.72-1.46l1.08,2.52A6.55,6.55,0,0,1,944.21,853.59Z"/><path class="cls-4" d="M959.45,853.35v-5.78h-5.54v5.78h-3.24v-13.8h3.24v5.34h5.54v-5.34h3.24v13.8Z"/><path class="cls-4" d="M975.35,851.93a6.91,6.91,0,0,1-8.94,0,6,6,0,0,1-1.3-4.34v-8h3.26v8a3.49,3.49,0,0,0,.54,2.3,2.71,2.71,0,0,0,4,0,3.49,3.49,0,0,0,.54-2.3v-8h3.26v8A5.93,5.93,0,0,1,975.35,851.93Z"/><path class="cls-4" d="M979.09,853.35v-13.8h3.22v11.12h4.78v2.68Z"/><path class="cls-4" d="M992.87,842.11v11.24h-3.24V842.11h-3.56v-2.56h10.36v2.56Z"/><path class="cls-4" d="M996.77,853.35V851l6.76-8.84H997v-2.62h10.74v2.2l-6.82,8.92h7v2.68Z"/><rect class="cls-1" x="756" y="136" width="369" height="595"/></svg>