<svg id="Layer_1" data-name="Layer 1" xmlns="http://www.w3.org/2000/svg" width="1920" height="1080" viewBox="0 0 1920 1080"><defs><style>.cls-1{fill:#eae7e4;}.cls-2{fill:#af7171;}.cls-3{fill:none;stroke:#af7171;stroke-miterlimit:10;stroke-width:3px;}.cls-4{fill:#f2ebbb;opacity:0.64;}</style></defs><rect class="cls-1" width="1920" height="1080"/><path class="cls-2" d="M716.49,124.52h-17v51h-32.4v-138h49.4c28.2,0,50.4,12.6,50.4,43.4S744.69,124.52,716.49,124.52Zm-4.6-62h-12.6v37h12.6c12.6,0,22.2-4.4,22.2-18.6C734.09,66.92,724.29,62.52,711.89,62.52Z"/><path class="cls-3" d="M927.68,177.92c-41,0-73.2-26.6-73.2-71.2s32.2-71.4,73.2-71.4,73.2,26.8,73.2,71.4S968.68,177.92,927.68,177.92Zm0-115c-23,0-40.4,16.6-40.4,43s17.4,43.2,40.4,43.2,40.4-16.8,40.4-43.2C968.08,79.72,950.68,62.92,927.68,62.92Z"/><path class="cls-2" d="M1169.48,175.52l-29-52.8h-10.2v52.8h-32.4v-138h49.6c26.4,0,51.6,11.2,51.6,41.4,0,26.2-16.8,36.4-27,39.6l35,57Zm-26.6-113h-12.8v35.4h12.8c12,0,23.6-3.6,23.6-17.8C1166.48,65.72,1154.88,62.52,1142.88,62.52Z"/><path class="cls-3" d="M722.94,282.26v112.4h-32.4V282.26h-35.6V256.67h103.6v25.59Z"/><path class="cls-2" d="M713.94,598.06c-41,0-73.2-26.6-73.2-71.2s32.2-71.4,73.2-71.4,73.2,26.8,73.2,71.4S754.94,598.06,713.94,598.06Zm0-115c-23,0-40.4,16.6-40.4,43s17.4,43.2,40.4,43.2,40.4-16.8,40.4-43.2C754.34,499.86,736.94,483.06,713.94,483.06Z"/><path class="cls-2" d="M1138.94,283.46v33.8h50.8v25.8h-50.8v52.6h-32.2v-138h86.2v25.79Z"/><path class="cls-3" d="M1106.74,595.66v-138h32.2V568.86h47.8v26.8Z"/><path class="cls-3" d="M732.15,796.06v-138h32.4v138Z"/><path class="cls-2" d="M1052.94,798.46c-41,0-73.2-26.6-73.2-71.2s32.2-71.4,73.2-71.4,73.2,26.8,73.2,71.4S1093.94,798.46,1052.94,798.46Zm0-115c-23,0-40.4,16.6-40.4,43s17.4,43.2,40.4,43.2,40.4-16.8,40.4-43.2C1093.34,700.26,1075.94,683.46,1052.94,683.46Z"/><rect class="cls-1" x="743" y="97" width="369" height="595"/><rect class="cls-4" x="1003" y="539" width="153" height="153"/><path d="M594.45,331.29h-3.08l-5.12-13.81h3.44l3.24,9.5,3.22-9.5h3.42Z"/><path d="M592.91,351.53c-4.1,0-7.32-2.67-7.32-7.13s3.22-7.14,7.32-7.14,7.32,2.68,7.32,7.14S597,351.53,592.91,351.53Zm0-11.51a4.32,4.32,0,1,0,4,4.3A4,4,0,0,0,592.91,340Z"/><path d="M589.44,371.29V357.48h3.22V368.6h4.78v2.69Z"/><path d="M597.37,389.87a6.94,6.94,0,0,1-8.94,0,6.05,6.05,0,0,1-1.3-4.35v-8h3.26v8a3.49,3.49,0,0,0,.54,2.3,2.71,2.71,0,0,0,4,0,3.49,3.49,0,0,0,.54-2.3v-8h3.26v8A6,6,0,0,1,597.37,389.87Z"/><path d="M597.73,411.29l-.54-9.41h0l-3,9.41h-2.56l-3-9.41h-.06l-.5,9.41h-3.18l1-13.81H590l2.88,9.08h0l2.84-9.08h4.1l1,13.81Z"/><path d="M588.61,431.29V417.48h8.94v2.58h-5.72v2.82h5.4v2.58h-5.4v3.21h5.9v2.62Z"/><path d="M592.91,467.28c-4,0-5.72-3.48-5.72-7.12s1.7-7.12,5.72-7.12,5.72,3.48,5.72,7.12S596.93,467.28,592.91,467.28Zm0-11.54c-1.78,0-2.54,1.88-2.54,4.36s.76,4.4,2.54,4.4,2.54-1.92,2.54-4.4S594.69,455.74,592.91,455.74Z"/><path d="M592,487V475.46h-2.5v-2.22h5.62V487Z"/><path d="M1247.21,386.29l-.38-2,4.68-4.23c1.3-1.18,2.08-2.08,2.08-3.26a2,2,0,0,0-2.22-1.94,4.49,4.49,0,0,0-3.34,1.86l-1.36-2.12a5.93,5.93,0,0,1,5-2.28c3.12,0,5,1.66,5,4.08s-1.8,3.86-2.9,4.84l-2.86,2.58h6.4v2.51Z"/><path d="M1251.91,406.53c-4,0-5.72-3.49-5.72-7.13s1.7-7.12,5.72-7.12,5.72,3.48,5.72,7.12S1255.93,406.53,1251.91,406.53Zm0-11.55c-1.78,0-2.54,1.88-2.54,4.36s.76,4.4,2.54,4.4,2.54-1.92,2.54-4.4S1253.69,395,1251.91,395Z"/><path d="M1247.21,426.29l-.38-2,4.68-4.23c1.3-1.18,2.08-2.08,2.08-3.26a2,2,0,0,0-2.22-1.94,4.49,4.49,0,0,0-3.34,1.86l-1.36-2.12a5.93,5.93,0,0,1,5-2.28c3.12,0,5,1.66,5,4.08s-1.8,3.86-2.9,4.84l-2.86,2.58h6.4v2.51Z"/><path d="M1251,446.29V434.7h-2.5v-2.22h5.62v13.81Z"/><path d="M852,862.35v-13.8h8.94v2.58h-5.72V854h5.4v2.58h-5.4v3.2h5.9v2.62Z"/><path d="M875.41,862.35l-.54-9.4h0l-3,9.4h-2.56l-3-9.4h-.06l-.5,9.4h-3.18l1-13.8h4.08l2.88,9.08h0l2.84-9.08h4.1l1,13.8Z"/><path d="M880.59,862.35v-13.8h3.24v13.8Z"/><path d="M886.35,862.35v-13.8h3.22v11.12h4.78v2.68Z"/><path d="M895.81,862.35v-13.8h3.24v13.8Z"/><path d="M901.57,862.35v-13.8h8.94v2.58h-5.72V854h5.4v2.58h-5.4v3.2h5.9v2.62Z"/><path d="M920.59,862.59a7.48,7.48,0,0,1-4.9-2.08l1.6-2.36a5.69,5.69,0,0,0,3.6,1.74c1,0,1.84-.5,1.84-1.42s-1-1.3-1.62-1.52-1.64-.58-2.1-.78a5.39,5.39,0,0,1-1.64-1,3.41,3.41,0,0,1-1.08-2.66,3.89,3.89,0,0,1,1.44-3,5.64,5.64,0,0,1,3.64-1.1,6.8,6.8,0,0,1,4.38,1.7l-1.38,2.26a4.76,4.76,0,0,0-3.08-1.4c-1,0-1.8.4-1.8,1.24s.78,1.16,1.4,1.4,1.62.6,2.06.78c1.76.64,3,1.78,3,3.78C926,861.13,923.27,862.59,920.59,862.59Z"/><path d="M934.21,862.59c-4.06,0-7.24-2.68-7.24-7.12s3.22-7.12,7.24-7.12a6.74,6.74,0,0,1,4.74,1.56l-1,2.68a5.29,5.29,0,0,0-3.56-1.44,4.25,4.25,0,0,0,0,8.5,5.09,5.09,0,0,0,3.72-1.46l1.08,2.52A6.55,6.55,0,0,1,934.21,862.59Z"/><path d="M949.45,862.35v-5.78h-5.54v5.78h-3.24v-13.8h3.24v5.34h5.54v-5.34h3.24v13.8Z"/><path d="M965.35,860.93a6.91,6.91,0,0,1-8.94,0,6,6,0,0,1-1.3-4.34v-8h3.26v8a3.49,3.49,0,0,0,.54,2.3,2.71,2.71,0,0,0,4,0,3.49,3.49,0,0,0,.54-2.3v-8h3.26v8A5.93,5.93,0,0,1,965.35,860.93Z"/><path d="M969.09,862.35v-13.8h3.22v11.12h4.78v2.68Z"/><path d="M982.87,851.11v11.24h-3.24V851.11h-3.56v-2.56h10.36v2.56Z"/><path d="M986.77,862.35V860l6.76-8.84H987v-2.62h10.74v2.2l-6.82,8.92h7v2.68Z"/></svg>