<svg id="Layer_1" data-name="Layer 1" xmlns="http://www.w3.org/2000/svg" width="90" height="90" viewBox="0 0 90 90"><defs><style>.cls-1{fill:#e6cacc;}.cls-2{fill:#fff;}.cls-3{fill:#878db0;}</style></defs><circle class="cls-1" cx="45.5" cy="45.5" r="43.5"/><circle class="cls-2" cx="45.5" cy="45.5" r="38.5"/><path class="cls-3" d="M34.67,27.9a5.46,5.46,0,1,1-5.34-5.46A5.44,5.44,0,0,1,34.67,27.9Zm-10.26,9h9.66V65.75H24.41Z"/><path class="cls-3" d="M42.29,36.9h8.22L51,40.5c2.7-3.12,5.46-4.45,9.24-4.45s6.42,1.27,7.92,3.61c1.14,1.73,1.5,3.72,1.5,7.73V65.75H60V50.09c0-2.46-.06-3.17-.36-4a2.49,2.49,0,0,0-2.52-1.67c-2,0-3.9,1.61-5.16,4.61V65.75H42.29Z"/></svg>