<svg id="Layer_1" data-name="Layer 1" xmlns="http://www.w3.org/2000/svg" width="312.9" height="312.9" viewBox="0 0 312.9 312.9"><defs><style>.cls-1{fill:#f2ebbb;opacity:0.64;}.cls-2{fill:none;stroke:#af7171;stroke-miterlimit:10;}</style></defs><rect class="cls-1" x="38.44" y="49" width="143.44" height="143.44"/><rect class="cls-1" x="110.63" y="121.19" width="143.44" height="143.44"/><path class="cls-2" d="M42.11,126.88h-23c.46,4.66,4,6.76,8.26,6.76a18.22,18.22,0,0,0,9.72-3.09L41.19,136c-1,.79-5.31,5.25-15.36,5.25S8.58,135.08,8.58,124.39,16.45,107.58,26,107.58,42.24,114,42.24,123.4C42.24,125,42.11,126.88,42.11,126.88ZM25.83,114.41a6.58,6.58,0,0,0-6.69,6.5H32.46A6.52,6.52,0,0,0,25.83,114.41Z"/><path class="cls-2" d="M87.2,140.53V122.94c0-3.48-.66-6.76-4.27-6.76s-5.25,3.28-5.25,7.75v16.6H67.18V122.94c0-4-.92-6.76-4.33-6.76-3.68,0-5.25,3.28-5.25,7.75v16.6H47.1V108.18H57.6l-.07,4.65.13-.06a10.57,10.57,0,0,1,8.93-5.19c4.46,0,8,1.51,9.65,5.91a11,11,0,0,1,10.3-5.91c8.27,0,11.22,5.65,11.22,13.46v19.49Z"/><path class="cls-2" d="M109.83,104.43c-3.54,0-6-2.16-6-5.44s2.43-5.45,6-5.45,6,2.23,6,5.45S113.38,104.43,109.83,104.43Zm-5.25,36.1V108.18h10.5v32.35Z"/><path class="cls-2" d="M122.43,140.53V95.25h10.5v45.28Z"/><path class="cls-2" d="M145.47,104.43c-3.55,0-6-2.16-6-5.44s2.42-5.45,6-5.45,6,2.23,6,5.45S149,104.43,145.47,104.43Zm-5.25,36.1V108.18h10.5v32.35Z"/><path class="cls-2" d="M189.44,126.88h-23c.46,4.66,4,6.76,8.27,6.76a18.18,18.18,0,0,0,9.71-3.09l4.14,5.45c-1.05.79-5.32,5.25-15.36,5.25s-17.26-6.17-17.26-16.86,7.88-16.81,17.46-16.81,16.21,6.37,16.21,15.82C189.57,125,189.44,126.88,189.44,126.88Zm-16.28-12.47a6.58,6.58,0,0,0-6.69,6.5h13.32A6.52,6.52,0,0,0,173.16,114.41Z"/><path class="cls-2" d="M201,141.25c-3.67,0-6.23-2.1-6.23-5.64S197.31,130,201,130s6.17,2.1,6.17,5.65S204.59,141.25,201,141.25Z"/><path class="cls-2" d="M83.81,211.31a19.86,19.86,0,0,1-13.65-5l3.94-6.24c2.63,2.23,7,3.94,9.58,3.94s4.46-.66,4.46-2.76-4.72-3.15-5.9-3.54c-5.38-1.38-10.11-3.28-10.11-10,0-6.3,5.51-10.17,12.27-10.17s10.57,2.5,12.41,4l-3.42,6.17c-1.83-1.44-5.51-3.15-8.13-3.15s-3.88.66-3.88,2.37,2.5,2.49,4.73,3.15c5.58,1.64,11.42,3.34,11.42,10.5C97.53,208.36,90.51,211.31,83.81,211.31Z"/><path class="cls-2" d="M117.61,211.31c-8.86,0-17.06-6-17.06-16.8s8.33-16.86,17.19-16.86c8.27,0,12,3.41,12,3.41l-2.3,7.94a13.29,13.29,0,0,0-8.33-2.89c-4.46,0-8,3.09-8,8.21s3.22,8.33,8.14,8.33a12.78,12.78,0,0,0,8.2-3.15l2.5,7.94C129.62,207.71,126.21,211.31,117.61,211.31Z"/><path class="cls-2" d="M155.54,210.59v-17c0-3.93-.52-7.34-4.92-7.34s-5.78,3.67-5.78,8.46v15.88h-10.5V165.31h10.5v10.76c0,3.28-.06,6.83-.06,6.83a10.39,10.39,0,0,1,9.51-5.25c9.39,0,11.82,6,11.82,13.85v19.09Z"/><path class="cls-2" d="M193.67,210.59l-.07-3.67a11.77,11.77,0,0,1-9.45,4.39c-8.92,0-11.61-5.44-11.61-13.52V178.24H183v18.11c0,3.74,1.05,6.3,4.79,6.3s5.44-3,5.44-7.22V178.24h10.5v32.35Z"/><path class="cls-2" d="M211,210.59V165.31h10.5v45.28Z"/><path class="cls-2" d="M240.78,186.25v11.61c0,2.82.2,4.79,3.42,4.79a9.8,9.8,0,0,0,3.15-.59l.52,8.2a28.25,28.25,0,0,1-7.48,1.05c-8.4,0-10.17-5.11-10.17-12.53V186.25h-4.6V178.3h4.6v-8.79h10.56v8.79h7.16v7.95Z"/><path class="cls-2" d="M249.71,210.59v-6l16.34-18.3H250.43V178.3h28.94v5.84l-16.14,18.12h16.93v8.33Z"/><path class="cls-2" d="M291.9,211.31c-3.67,0-6.23-2.1-6.23-5.64s2.56-5.64,6.23-5.64,6.17,2.1,6.17,5.64S295.51,211.31,291.9,211.31Z"/></svg>