<svg xmlns="http://www.w3.org/2000/svg" width="207.037" height="219.448" viewBox="0 0 207.037 219.448">
  <g id="Group_6" data-name="Group 6" transform="translate(-42.562 -16.141)">
    <path id="Path_2" data-name="Path 2" d="M848.963,479.934s-11.706-6.06-12.392-28.434,9.242-26.827,9.06-34.084,5.235-17.784,5.235-17.784,1.814,19.678,0,22.443-4.8,13.415-5.235,14.982-2.375,9.823-1.511,14.444,2.2,11.932,4.843,16.052,8.675,12.383,8.675,12.383Z" transform="translate(-722.819 -382.087)" fill="none" stroke="#c7b299" stroke-width="0.8"/>
    <path id="Path_3" data-name="Path 3" d="M12.427,80.3S.721,74.243.034,51.868s9.242-26.827,9.06-34.084S14.33,0,14.33,0s1.813,19.678,0,22.443-4.8,13.415-5.236,14.982S6.719,47.247,7.583,51.868,9.788,63.8,12.427,67.92,21.1,80.3,21.1,80.3Z" transform="translate(43.966 157.927) rotate(-90)" fill="none" stroke="#c7b299" stroke-width="0.8"/>
    <path id="Path_4" data-name="Path 4" d="M12.427,80.3S.721,74.243.034,51.868s9.242-26.827,9.06-34.084S14.33,0,14.33,0s1.813,19.678,0,22.443-4.8,13.415-5.236,14.982S6.719,47.247,7.583,51.868,9.788,63.8,12.427,67.92,21.1,80.3,21.1,80.3Z" transform="translate(178.443 234.186) rotate(180)" fill="none" stroke="#c7b299" stroke-width="0.8"/>
    <path id="Path_5" data-name="Path 5" d="M12.427,80.3S.721,74.243.034,51.868s9.242-26.827,9.06-34.084S14.33,0,14.33,0s1.813,19.678,0,22.443-4.8,13.415-5.236,14.982S6.719,47.247,7.583,51.868,9.788,63.8,12.427,67.92,21.1,80.3,21.1,80.3Z" transform="translate(248.195 93.503) rotate(90)" fill="none" stroke="#c7b299" stroke-width="0.8"/>
    <path id="Path_6" data-name="Path 6" d="M845.211,479.935s11.706-6.06,12.392-28.435-9.241-26.827-9.06-34.084-5.235-17.784-5.235-17.784-1.813,19.678,0,22.443,4.8,13.415,5.235,14.982,2.376,9.823,1.512,14.444-2.2,11.932-4.844,16.052-8.675,12.383-8.675,12.383Z" transform="translate(-679.194 -382.087)" fill="none" stroke="#c7b299" stroke-width="0.8"/>
    <path id="Path_7" data-name="Path 7" d="M8.675,80.3s11.706-6.06,12.393-28.435-9.242-26.827-9.06-34.084S6.772,0,6.772,0s-1.813,19.678,0,22.443,4.8,13.415,5.236,14.982,2.375,9.823,1.511,14.444S11.314,63.8,8.675,67.92,0,80.3,0,80.3Z" transform="translate(43.966 114.604) rotate(-90)" fill="none" stroke="#c7b299" stroke-width="0.8"/>
    <path id="Path_8" data-name="Path 8" d="M8.675,80.3s11.706-6.06,12.393-28.435-9.242-26.827-9.06-34.084S6.772,0,6.772,0s-1.813,19.678,0,22.443,4.8,13.415,5.236,14.982,2.375,9.823,1.511,14.444S11.314,63.8,8.675,67.92,0,80.3,0,80.3Z" transform="translate(248.195 136.825) rotate(90)" fill="none" stroke="#c7b299" stroke-width="0.8"/>
    <path id="Path_9" data-name="Path 9" d="M8.675,80.3s11.706-6.06,12.393-28.435-9.242-26.827-9.06-34.084S6.772,0,6.772,0s-1.813,19.678,0,22.443,4.8,13.415,5.236,14.982,2.375,9.823,1.511,14.444S11.314,63.8,8.675,67.92,0,80.3,0,80.3Z" transform="translate(134.819 234.186) rotate(180)" fill="none" stroke="#c7b299" stroke-width="0.8"/>
    <path id="Path_10" data-name="Path 10" d="M721.8,430.294a39.832,39.832,0,0,1-5.466,10.327,38.332,38.332,0,0,1-8.6,7.705,39.968,39.968,0,0,1,8.6,8.581,46.415,46.415,0,0,1,5.466,11.484,96.536,96.536,0,0,1,6.335-11.484,58.922,58.922,0,0,1,8.246-8.581,45.248,45.248,0,0,1-8.246-7.705A57.147,57.147,0,0,1,721.8,430.294Z" transform="translate(-575.94 -324.119)" fill="none" stroke="#c7b299" stroke-width="0.8"/>
  </g>
</svg>
