<svg xmlns="http://www.w3.org/2000/svg" width="260" height="260" viewBox="0 0 260 260"><defs><style>.cls-1,.cls-2{fill:none;stroke:#af7171;}.cls-1{stroke-miterlimit:4;}</style></defs><g id="_5._krop" data-name="5. krop"><g id="Group_5" data-name="Group 5"><path id="Path_4" data-name="Path 4" class="cls-1" d="M137.4,49.69,118.1,36.57l10.33,20.9,15.65,18s-4.57,14.16,8.29,28.85S179,115.51,179,115.51l11.64,13.35a7.73,7.73,0,0,0-.86,5.7,8.21,8.21,0,0,0,1.29,3.22c.66,1.24,2.47,4.35,3.56,4.83l-28.8,24.94,23.55,27,5.66-4.91-17.79-20.41,23.14-20s4.78,3.93,9.11,4.34,8.18-2.71,8.18-2.71l20.65,23.69-9,7.84-11.1-12.75-5,4.37,11.11,12.75-5.76,5L207.4,179l-5.76,5,16.77,19.25L252.09,174l-26.31-30.19s5-5.6,6.08-11.5-.44-8-1.72-12.09l13-11.23,7.65,8.77,6.28-5.44L236.69,89l-6.3,5.45,8.55,9.8-13,11.23s-5.42-3.25-11.11-2.63A23.63,23.63,0,0,0,203.23,118l-11.65-13.36s2.34-12.7-9.2-26.34-29.33-10.63-29.33-10.63Z"/><path id="Path_12" data-name="Path 12" class="cls-2" d="M129.38,49.8l20.4-12.51L138.11,58.34,121.17,76.07s3.9,14.89-10,29.4-27.79,10.16-27.79,10.16l-12.6,13.18a8.11,8.11,0,0,1,.57,5.94A8.7,8.7,0,0,1,69.84,138c-.75,1.26-2.77,4.37-3.9,4.8l28,27.41L68.49,196.88,63,191.49l19.26-20.14-22.52-22s-5.09,3.81-9.53,4-8.2-3.25-8.2-3.25L19.63,173.46l8.8,8.6,12-12.58,4.92,4.8-12,12.59,5.59,5.47,12-12.58,5.6,5.48-18.15,19-32.78-32,28.47-29.8s-4.78-6.07-5.58-12.23.88-8.27,2.41-12.42L18.32,105.4,10,114.06l-6.12-6L26,85l6.12,6-9.25,9.68L35.45,113s5.71-3.06,11.48-2.1,9.81,4.42,11.59,5.94l12.6-13.18S69.42,90.4,81.94,76.92s30.5-9.39,30.5-9.39Z"/></g></g></svg>