<svg xmlns="http://www.w3.org/2000/svg" width="260" height="260" viewBox="0 0 260 260"><defs><style>.cls-1{fill:none;stroke:#af7171;stroke-miterlimit:10;stroke-width:1.5px;}.cls-2{fill:#af7171;}</style></defs><g id="_3._krop" data-name="3. krop"><path class="cls-1" d="M19,96.08l1.55-4.25c1.3-3.54,2.2-5.92,2.71-7.12q2.39-5.64,5.44-8.07a12,12,0,0,1,6.64-2.72,15.59,15.59,0,0,1,7.44,1.33,16,16,0,0,1,4.73,3,11.66,11.66,0,0,1,2.85,3.92,10.89,10.89,0,0,1,.88,4.38,15,15,0,0,1-.57,4.08,51.39,51.39,0,0,1-1.87,5l-4.74,11.21-.86-.36.44-1a4.73,4.73,0,0,0,.54-2.43,2.07,2.07,0,0,0-.94-1.34,30.59,30.59,0,0,0-4-1.89L27.07,94.59a30.14,30.14,0,0,0-4-1.48,1.83,1.83,0,0,0-1.53.24,6.64,6.64,0,0,0-1.38,2.35l-.31.75Zm3.82-7.58,16.91,7.16c2.5,1,4.13,1.69,4.9,1.9a2.11,2.11,0,0,0,1.87-.2,6.94,6.94,0,0,0,1.69-2.77,15.06,15.06,0,0,0,1.39-5.81,8.13,8.13,0,0,0-2.06-5.07,15.46,15.46,0,0,0-6.18-4.29,19.77,19.77,0,0,0-6.08-1.6,11.32,11.32,0,0,0-5.1.65A8.73,8.73,0,0,0,26.56,81,18.32,18.32,0,0,0,24,85.59C23.54,86.53,23.17,87.51,22.82,88.5Z"/><path class="cls-1" d="M65,57.06,57.1,63.89l.6,1.78a18.14,18.14,0,0,0,2,4.78,2.19,2.19,0,0,0,1.86.86,3.38,3.38,0,0,0,2-.93l.61.71-6.17,5.34-.61-.7A4.43,4.43,0,0,0,58.69,73a15.83,15.83,0,0,0-1.14-4.6c-.08-.2-.35-1-.81-2.42L50.3,46.32l.6-.52L72.12,56.3,75,57.65a3.79,3.79,0,0,0,1.86.41,4.26,4.26,0,0,0,2.1-.89l.6.71L71.36,65l-.61-.71a7.68,7.68,0,0,0,1.83-2,1.13,1.13,0,0,0-.23-1.34,12.29,12.29,0,0,0-2.44-1.39Zm-.86-.46L52.79,50.92l4,12Z"/><path class="cls-1" d="M95.68,52.55,94.5,53,78.08,35.73c-.3-.31-.79-.85-1.48-1.62a6.34,6.34,0,0,0-2.46-1.88,4.84,4.84,0,0,0-2.89.3l-.32-.87,11.12-4.07.32.87a8.77,8.77,0,0,0-2.68,1.33,1.22,1.22,0,0,0-.29,1.42,10.14,10.14,0,0,0,1.85,2.26L94.94,47.88l.73-16.44a17.86,17.86,0,0,0-.2-5.21c-.53-1.46-1.84-1.83-3.93-1.13l-.32-.87,7.88-2.89.32.88a3.41,3.41,0,0,0-1.8,1.63,7,7,0,0,0-.7,3l-.25,4.69Z"/><path class="cls-1" d="M114.68,20.4l-.06-.93,12.54-.77.06.93-.59,0a6.86,6.86,0,0,0-2.63.49,1.77,1.77,0,0,0-.76,1.3,25,25,0,0,0,.05,4.34l.82,13.45a38.75,38.75,0,0,0,.41,4.23,2.23,2.23,0,0,0,.9,1.44,4.7,4.7,0,0,0,2.55.33l.81,0,.06.93-12.54.77-.06-.93.81,0a4.8,4.8,0,0,0,2.41-.6,2.06,2.06,0,0,0,.78-1.44,31.82,31.82,0,0,0-.09-4.39L119.33,26a29.8,29.8,0,0,0-.45-4.21,1.82,1.82,0,0,0-.88-1.27,6.47,6.47,0,0,0-2.74-.2Z"/><path class="cls-1" d="M161.16,51.67,147.94,22.24,143.7,40.83a12.49,12.49,0,0,0-.46,3.1,2.58,2.58,0,0,0,1,1.64,6.84,6.84,0,0,0,3.06,1.34l-.2.91-10-2.28.21-.91a7.4,7.4,0,0,0,3.08,0,2.33,2.33,0,0,0,1.47-1,14.78,14.78,0,0,0,.89-3L146,26.41a19.67,19.67,0,0,0,.66-4.2,2,2,0,0,0-.61-1.55,8.28,8.28,0,0,0-2.7-.93l.2-.91,7.91,1.8,11.08,24.59,3.66-16a6.18,6.18,0,0,0,.2-2.57,2.67,2.67,0,0,0-1.24-1.47,8,8,0,0,0-2.61-1l.21-.91,9.72,2.22-.21.91a7,7,0,0,0-2.82,0,2.49,2.49,0,0,0-1.53.95,7.87,7.87,0,0,0-.82,2.38L162,51.87Z"/><path class="cls-1" d="M199.27,61.91l.69.52-5.74,7.72-.7-.52a7.33,7.33,0,0,0,.67-3.11,11.81,11.81,0,0,1-9.87-2.24,13.21,13.21,0,0,1-5.57-8.83,13.47,13.47,0,0,1,2.92-10.26,17.28,17.28,0,0,1,6-5.11,11.7,11.7,0,0,1,7.09-1.39,13.82,13.82,0,0,1,6.53,2.69A12.31,12.31,0,0,1,205,45.73a11.28,11.28,0,0,1,1.32,4.48,10.17,10.17,0,0,0,3-2.23l.71.53L204,57l-.7-.51c1.72-3.34,2.26-6.14,1.63-8.42a10.11,10.11,0,0,0-3.79-5.52,8.06,8.06,0,0,0-7.6-1.28q-4.14,1.3-8,6.53-3.69,5-3.42,9.26a8.68,8.68,0,0,0,3.58,6.77,10.55,10.55,0,0,0,4.27,1.83,7.86,7.86,0,0,0,5.1-.73A13.92,13.92,0,0,0,199.27,61.91Z"/><path class="cls-1" d="M213.38,72.49a13.11,13.11,0,0,1,11.06-.23,15.28,15.28,0,0,1,7.8,8.17,15.58,15.58,0,0,1,.84,11.36q-1.76,5.47-7.78,8.13a13.7,13.7,0,0,1-11.12.39q-5.28-2.19-8-8.34a15,15,0,0,1-.71-11.42A13.68,13.68,0,0,1,213.38,72.49Zm1.74,4.3q-6.08,2.67-8,6.43t.15,8.6a9,9,0,0,0,6,5.38q4.13,1.13,10.16-1.53,5.85-2.58,7.91-6.39a9.15,9.15,0,0,0,0-8.42,9.1,9.1,0,0,0-6.12-5.62Q221.09,74.16,215.12,76.79Z"/><path class="cls-1" d="M235.71,163.94l-1.61,4.23c-1.35,3.52-2.28,5.88-2.81,7.08q-2.46,5.61-5.55,8a12.1,12.1,0,0,1-6.68,2.63,15.72,15.72,0,0,1-7.42-1.44,16.13,16.13,0,0,1-4.69-3.06,11.49,11.49,0,0,1-2.79-4,10.84,10.84,0,0,1-.82-4.39A14.79,14.79,0,0,1,204,169a48.35,48.35,0,0,1,1.94-4.95l4.9-11.15.86.38-.46,1a4.79,4.79,0,0,0-.58,2.41,2.09,2.09,0,0,0,.92,1.36,29.62,29.62,0,0,0,3.94,1.94l12.13,5.34a28.28,28.28,0,0,0,4,1.53,1.83,1.83,0,0,0,1.53-.21,6.51,6.51,0,0,0,1.41-2.33l.33-.75Zm-3.93,7.52L215,164.07q-3.73-1.63-4.87-2a2.11,2.11,0,0,0-1.88.17A7,7,0,0,0,206.5,165a15.21,15.21,0,0,0-1.47,5.8,8.11,8.11,0,0,0,2,5.09,15.49,15.49,0,0,0,6.12,4.39,20.09,20.09,0,0,0,6.05,1.68,11.25,11.25,0,0,0,5.11-.58,8.73,8.73,0,0,0,3.64-2.47,18.51,18.51,0,0,0,2.68-4.56C231,173.42,231.42,172.46,231.78,171.46Z"/><path class="cls-1" d="M191.28,203.64l7.26-7.5-.76-1.72a18,18,0,0,0-2.45-4.58,2.24,2.24,0,0,0-1.93-.7,3.49,3.49,0,0,0-2,1.11l-.67-.65,5.68-5.86.67.64a4.4,4.4,0,0,0-1,2.85,15.49,15.49,0,0,0,1.54,4.48c.09.19.43,1,1,2.34l8.13,19-.55.57L184.23,205l-2.94-1.1a3.73,3.73,0,0,0-1.89-.24,4.28,4.28,0,0,0-2,1.06l-.67-.64,7.52-7.76.67.65a8,8,0,0,0-1.66,2.13,1.14,1.14,0,0,0,.35,1.31,11.68,11.68,0,0,0,2.56,1.18Zm.89.39,11.8,4.65-5-11.63Z"/><path class="cls-1" d="M161.24,210.42l1.16-.49,17.18,16.49c.31.3.83.81,1.54,1.55a6.38,6.38,0,0,0,2.55,1.77,4.85,4.85,0,0,0,2.87-.43l.36.86L176,234.74l-.36-.86a8.64,8.64,0,0,0,2.61-1.45,1.21,1.21,0,0,0,.23-1.43,10.15,10.15,0,0,0-1.94-2.18l-14.33-13.77V231.5a17.78,17.78,0,0,0,.44,5.2q.9,2.15,4,1l.36.86-7.74,3.23-.36-.86a3.39,3.39,0,0,0,1.72-1.7,6.94,6.94,0,0,0,.57-3l0-4.69Z"/><path class="cls-1" d="M141.29,242.42v.93l-12.57-.1v-.93h.59A6.67,6.67,0,0,0,132,242a1.78,1.78,0,0,0,.86-1.24,27.21,27.21,0,0,0,.24-4.34l.11-13.47a35.43,35.43,0,0,0-.11-4.25,2.13,2.13,0,0,0-.8-1.49,4.56,4.56,0,0,0-2.52-.51h-.81v-.93l12.56.1v.94h-.81a4.66,4.66,0,0,0-2.44.43,2,2,0,0,0-.87,1.38,30.36,30.36,0,0,0-.22,4.38l-.11,13.48a30.7,30.7,0,0,0,.14,4.24A1.86,1.86,0,0,0,138,242a6.49,6.49,0,0,0,2.72.39Z"/><path class="cls-1" d="M97.54,207l10.2,30.61,6.08-18.07a13.29,13.29,0,0,0,.78-3,2.65,2.65,0,0,0-.82-1.73,6.73,6.73,0,0,0-2.91-1.64l.3-.89,9.71,3.28-.29.88a7.48,7.48,0,0,0-3.08-.28,2.34,2.34,0,0,0-1.55.79,14.84,14.84,0,0,0-1.2,2.94l-4.65,13.81a19.42,19.42,0,0,0-1.07,4.11,2,2,0,0,0,.44,1.6,8.19,8.19,0,0,0,2.6,1.2l-.29.88-7.69-2.59-8.55-25.57L90.3,228.84a6.1,6.1,0,0,0-.46,2.54A2.63,2.63,0,0,0,90.92,233a8.23,8.23,0,0,0,2.5,1.29l-.3.88L83.67,232l.3-.88a7.24,7.24,0,0,0,2.81.24,2.54,2.54,0,0,0,1.62-.79,8.12,8.12,0,0,0,1.06-2.29l7.25-21.55Z"/><path class="cls-1" d="M59.44,195.56l-.69-.53,5.93-7.59.68.53a7.38,7.38,0,0,0-.74,3.1,11.8,11.8,0,0,1,9.82,2.47,13.2,13.2,0,0,1,5.36,9,13.46,13.46,0,0,1-3.15,10.18,17.44,17.44,0,0,1-6.1,5,11.85,11.85,0,0,1-7.12,1.22A13.88,13.88,0,0,1,57,216a12.09,12.09,0,0,1-3.62-4.43,11.2,11.2,0,0,1-1.22-4.52,9.92,9.92,0,0,0-3,2.17l-.7-.55,6.21-8.36.69.53c-1.8,3.3-2.4,6.09-1.82,8.38a10.1,10.1,0,0,0,3.66,5.6,8.05,8.05,0,0,0,7.57,1.46q4.15-1.2,8.17-6.35c2.54-3.25,3.75-6.3,3.64-9.18A8.68,8.68,0,0,0,73.09,194,10.73,10.73,0,0,0,68.87,192a8,8,0,0,0-5.13.62A13.7,13.7,0,0,0,59.44,195.56Z"/><path class="cls-1" d="M46.82,183.8a13.1,13.1,0,0,1-11,.48,15.22,15.22,0,0,1-8-8A15.62,15.62,0,0,1,26.66,165c1.08-3.67,3.61-6.45,7.59-8.31a13.64,13.64,0,0,1,11.1-.66c3.56,1.37,6.28,4.09,8.19,8.15a15.08,15.08,0,0,1,1,11.4A13.74,13.74,0,0,1,46.82,183.8ZM45,179.54q6-2.82,7.88-6.62t-.36-8.6a8.94,8.94,0,0,0-6.12-5.23q-4.16-1-10.12,1.77-5.79,2.73-7.76,6.58a9.16,9.16,0,0,0,.18,8.42,9.16,9.16,0,0,0,6.25,5.47Q39.07,182.3,45,179.54Z"/><path class="cls-1" d="M135.54,63.6l-.06,18.85c.94,7.26,3.24,10.75,5.26,12.58a15.32,15.32,0,0,1,3.15,3.57,15.14,15.14,0,0,1,2.12,6.26v94.56H112.37V101.89a14.89,14.89,0,0,1,1.46-3.31A16.73,16.73,0,0,1,118,94c1.79-1.52,3.78-4.54,4.25-11.21q.21-9.61.41-19.22"/><line class="cls-1" x1="122.34" y1="63.6" x2="135.9" y2="63.6"/><path class="cls-2" d="M145.48,109.06a8.45,8.45,0,0,1-3.66,2,.09.09,0,0,0,.06.18,8.85,8.85,0,0,0,3.73-2c.08-.08-.05-.21-.13-.13Z"/><path class="cls-2" d="M146,111.48a6.41,6.41,0,0,1-4,2.18c-.11,0-.1.2,0,.18a6.66,6.66,0,0,0,4.11-2.24c.07-.09-.07-.21-.14-.12Z"/><path class="cls-2" d="M143.6,111.77a4.42,4.42,0,0,1-2.49.92.09.09,0,1,0,0,.18,4.57,4.57,0,0,0,2.57-1c.09-.07,0-.22-.09-.15Z"/><path class="cls-2" d="M146.16,119.37a7.35,7.35,0,0,1-3.27,1.95.09.09,0,0,0,.06.18,7.77,7.77,0,0,0,3.35-2c.08-.09-.06-.21-.14-.13Z"/><path class="cls-2" d="M146.63,121.79A5.69,5.69,0,0,1,143,124c-.11,0-.06.19.06.17a5.85,5.85,0,0,0,3.66-2.24c.07-.09-.07-.22-.13-.12Z"/><path class="cls-2" d="M144.46,122.1a3.66,3.66,0,0,1-2.21.9c-.11,0-.1.19,0,.18a3.94,3.94,0,0,0,2.34-1c.08-.08,0-.2-.14-.12Z"/><path class="cls-2" d="M146,124.91a8.76,8.76,0,0,1-3.88,1.7c-.12,0-.06.19,0,.17a8.86,8.86,0,0,0,3.93-1.72c.09-.07,0-.22-.1-.15Z"/><path class="cls-2" d="M146.35,127.37a6.67,6.67,0,0,1-4.22,1.9.09.09,0,1,0,0,.18,6.81,6.81,0,0,0,4.34-2c.08-.08,0-.2-.13-.12Z"/><path class="cls-2" d="M143.88,127.49a4.5,4.5,0,0,1-2.6.74c-.12,0-.11.18,0,.18a4.75,4.75,0,0,0,2.69-.76c.09-.07,0-.22-.1-.16Z"/><path class="cls-2" d="M146,135.26A7.65,7.65,0,0,1,142.5,137c-.11,0-.06.2.06.17a7.83,7.83,0,0,0,3.55-1.76c.09-.08,0-.2-.13-.12Z"/><path class="cls-2" d="M146.29,137.7a5.83,5.83,0,0,1-3.8,1.92c-.11,0-.1.2,0,.18a6,6,0,0,0,3.92-2c.07-.09-.06-.21-.13-.12Z"/><path class="cls-2" d="M144.08,137.84a3.88,3.88,0,0,1-2.34.76c-.12,0-.11.18,0,.18a4,4,0,0,0,2.42-.79c.09-.07,0-.22-.09-.15Z"/><path class="cls-2" d="M146.14,142.14a8,8,0,0,1-3.47,2c-.11,0,0,.2.06.17a8.22,8.22,0,0,0,3.54-2c.08-.08-.05-.2-.13-.12Z"/><path class="cls-2" d="M146.63,144.55a6.14,6.14,0,0,1-3.8,2.19c-.11,0-.06.19.06.17a6.21,6.21,0,0,0,3.87-2.24c.07-.09-.06-.21-.13-.12Z"/><path class="cls-2" d="M144.34,144.86a4,4,0,0,1-2.34.9.09.09,0,1,0,0,.18,4.18,4.18,0,0,0,2.46-1c.09-.07,0-.19-.13-.12Z"/><path class="cls-2" d="M146,147.67a9.54,9.54,0,0,1-4.09,1.7c-.11,0-.1.2,0,.18a9.81,9.81,0,0,0,4.18-1.72c.09-.07,0-.23-.1-.16Z"/><path class="cls-2" d="M146.33,150.14a7.23,7.23,0,0,1-4.46,1.89.09.09,0,1,0,0,.18,7.45,7.45,0,0,0,4.59-2c.08-.09-.06-.21-.14-.12Z"/><path class="cls-2" d="M143.72,150.26A5.13,5.13,0,0,1,141,151c-.11,0-.1.18,0,.18a5.27,5.27,0,0,0,2.85-.77.09.09,0,0,0-.1-.15Z"/><path class="cls-2" d="M145.12,153.65a8.52,8.52,0,0,1-3.65,1.95c-.12,0-.06.2.05.17a8.63,8.63,0,0,0,3.73-2c.09-.08-.05-.2-.13-.12Z"/><path class="cls-2" d="M145.64,156.07a6.51,6.51,0,0,1-4,2.18c-.12,0-.11.2,0,.18a6.66,6.66,0,0,0,4.1-2.24c.07-.09-.06-.21-.13-.12Z"/><path class="cls-2" d="M143.24,156.36a4.46,4.46,0,0,1-2.49.92c-.11,0-.1.19,0,.18a4.63,4.63,0,0,0,2.58-1c.09-.07,0-.22-.1-.15Z"/><path class="cls-2" d="M145.81,164a7.46,7.46,0,0,1-3.27,1.95.09.09,0,1,0,.05.17,7.62,7.62,0,0,0,3.35-2c.08-.08-.05-.2-.13-.12Z"/><path class="cls-2" d="M146.27,166.38a5.7,5.7,0,0,1-3.58,2.18c-.12,0-.06.2.05.18a5.9,5.9,0,0,0,3.67-2.24c.06-.1-.07-.22-.14-.12Z"/><path class="cls-2" d="M144.11,166.68a3.76,3.76,0,0,1-2.21.91.09.09,0,1,0,0,.18,3.92,3.92,0,0,0,2.33-1c.09-.08-.05-.2-.13-.13Z"/><path class="cls-2" d="M145.65,169.5a8.84,8.84,0,0,1-3.89,1.7c-.11,0,0,.19.06.17a8.91,8.91,0,0,0,3.93-1.72c.09-.07,0-.22-.1-.15Z"/><path class="cls-2" d="M146,172a6.58,6.58,0,0,1-4.21,1.89.09.09,0,1,0,0,.18,6.85,6.85,0,0,0,4.34-1.95c.08-.08-.06-.21-.14-.12Z"/><path class="cls-2" d="M143.53,172.08a4.56,4.56,0,0,1-2.61.74c-.11,0-.1.18,0,.18a4.77,4.77,0,0,0,2.7-.77c.09-.06,0-.21-.1-.15Z"/><path class="cls-2" d="M145.63,179.85a7.75,7.75,0,0,1-3.48,1.71c-.12,0-.06.2,0,.17a7.81,7.81,0,0,0,3.56-1.76c.09-.08,0-.2-.13-.12Z"/><path class="cls-2" d="M145.93,182.29a5.81,5.81,0,0,1-3.79,1.92c-.11,0-.11.2,0,.18a6,6,0,0,0,3.92-2c.07-.09-.06-.21-.14-.12Z"/><path class="cls-2" d="M143.72,182.43a3.92,3.92,0,0,1-2.34.76c-.11,0-.1.18,0,.18a4.08,4.08,0,0,0,2.43-.79c.09-.07,0-.22-.1-.15Z"/><path class="cls-2" d="M145.78,186.72a7.9,7.9,0,0,1-3.46,1.95.09.09,0,0,0,.05.18,8.26,8.26,0,0,0,3.55-2c.08-.09-.06-.21-.14-.13Z"/><path class="cls-2" d="M146.27,189.14a6.09,6.09,0,0,1-3.79,2.19c-.12,0-.06.19.05.17a6.25,6.25,0,0,0,3.88-2.24c.06-.09-.07-.21-.14-.12Z"/><path class="cls-2" d="M144,189.45a4.12,4.12,0,0,1-2.35.9c-.11,0-.1.19,0,.18a4.25,4.25,0,0,0,2.47-1c.09-.08-.05-.2-.13-.12Z"/><path class="cls-2" d="M145.61,192.26a9.63,9.63,0,0,1-4.08,1.7c-.12,0-.11.2,0,.18a9.66,9.66,0,0,0,4.17-1.73c.09-.07,0-.22-.1-.15Z"/><path class="cls-2" d="M146,194.72a7.24,7.24,0,0,1-4.47,1.9c-.11,0-.1.19,0,.18a7.36,7.36,0,0,0,4.59-2c.08-.08-.05-.2-.13-.12Z"/><path class="cls-2" d="M143.37,194.84a5,5,0,0,1-2.76.74c-.12,0-.11.18,0,.18a5.28,5.28,0,0,0,2.85-.76c.09-.07,0-.22-.1-.16Z"/><path class="cls-2" d="M145.87,114.13a3.16,3.16,0,0,1-2.31,1.82c-.11,0-.1.2,0,.18a3.33,3.33,0,0,0,2.46-1.91c.05-.11-.11-.19-.16-.09Z"/><path class="cls-2" d="M145.81,116.12a6,6,0,0,1-3.1,2c-.11,0-.05.2.06.17a6.31,6.31,0,0,0,3.18-2c.07-.09-.06-.22-.14-.13Z"/><path class="cls-2" d="M145.47,118.33a8.37,8.37,0,0,1-1.2.76c-.1,0,0,.2.1.15a8.37,8.37,0,0,0,1.2-.76c.09-.07,0-.22-.1-.15Z"/><path class="cls-2" d="M143.7,114.6a5.82,5.82,0,0,1-1.59.31.09.09,0,1,0,0,.18,6,6,0,0,0,1.63-.32c.11,0,.06-.21-.05-.17Z"/><path class="cls-2" d="M143.81,116.84a7.27,7.27,0,0,1-2.28.65.09.09,0,1,0,0,.18,7.32,7.32,0,0,0,2.37-.68c.1,0,0-.2-.1-.15Z"/><path class="cls-2" d="M144,124.83a6.3,6.3,0,0,1-1.54.56c-.11,0-.06.2.06.17a6.38,6.38,0,0,0,1.58-.58c.1-.06,0-.21-.1-.15Z"/><path class="cls-2" d="M145.67,130.07a5.23,5.23,0,0,1-2.28,1,.09.09,0,1,0,0,.18,5.39,5.39,0,0,0,2.37-1c.1-.06,0-.21-.1-.15Z"/><path class="cls-2" d="M145.71,131.82a16.19,16.19,0,0,1-3.58,1.32c-.11,0,0,.2.06.17a17.1,17.1,0,0,0,3.62-1.34c.11-.05,0-.2-.1-.15Z"/><path class="cls-2" d="M145.51,133.22a2.08,2.08,0,0,1-1.62.78c-.11,0-.1.17,0,.17a2.21,2.21,0,0,0,1.74-.82c.07-.09-.06-.22-.13-.13Z"/><path class="cls-2" d="M144.11,135.23l-1.05.44a1.62,1.62,0,0,1-1.05.2c-.11,0-.15.15,0,.18a1.7,1.7,0,0,0,1.06-.17l1.12-.48c.11-.05.05-.22,0-.17Z"/><path class="cls-2" d="M145.64,140.59a5.42,5.42,0,0,1-2,1.19c-.11,0-.06.2.06.17a5.47,5.47,0,0,0,2.12-1.24c.08-.08-.05-.2-.13-.12Z"/><path class="cls-2" d="M145.79,139.57a10.17,10.17,0,0,1-1.83.78.09.09,0,0,0,0,.17,9.66,9.66,0,0,0,1.87-.8c.11-.06,0-.21-.09-.15Z"/><path class="cls-2" d="M144.07,142.59a2.31,2.31,0,0,1-1.46.67c-.12,0-.11.18,0,.18a2.56,2.56,0,0,0,1.58-.73c.08-.08,0-.2-.13-.12Z"/><path class="cls-2" d="M143.28,140.93a1.84,1.84,0,0,1-1.6.47.09.09,0,1,0,0,.17,2,2,0,0,0,1.77-.52c.09-.08,0-.2-.13-.12Z"/><path class="cls-2" d="M145.57,161.72a6.74,6.74,0,0,1-4.51,2.35.09.09,0,1,0,0,.18,6.87,6.87,0,0,0,4.63-2.41c.07-.09-.06-.21-.13-.12Z"/><path class="cls-2" d="M143.71,161.58a3.14,3.14,0,0,1-2.46.93c-.12,0-.16.16,0,.17a3.33,3.33,0,0,0,2.64-1c.08-.08-.06-.2-.14-.12Z"/><path class="cls-2" d="M145.32,159.27a4.28,4.28,0,0,1-2.14,1.34c-.11,0-.06.2.06.17a4.34,4.34,0,0,0,2.21-1.39.09.09,0,1,0-.13-.12Z"/><path class="cls-2" d="M145.33,158.16a6.44,6.44,0,0,1-2.67,1.47.09.09,0,0,0,.05.17,6.69,6.69,0,0,0,2.75-1.51c.09-.08-.05-.2-.13-.13Z"/><path class="cls-2" d="M145.34,174a17.35,17.35,0,0,1-1.75.94c-.1,0,0,.2.1.15a18.09,18.09,0,0,0,1.74-.93c.1-.06,0-.22-.09-.16Z"/><path class="cls-2" d="M145.58,175a4.31,4.31,0,0,1-2.47,1.31c-.12,0-.11.19,0,.17a4.4,4.4,0,0,0,2.6-1.36c.08-.08-.06-.2-.14-.12Z"/><path class="cls-2" d="M145.86,176.53a4,4,0,0,1-2.58,1.45c-.12,0-.11.2,0,.18a4.2,4.2,0,0,0,2.7-1.51c.07-.09-.06-.21-.13-.12Z"/><path class="cls-2" d="M145.51,178.07l-2.35,1.12c-.1.05,0,.2.1.16l2.34-1.12c.11,0,0-.2-.09-.16Z"/><path class="cls-2" d="M145.79,179.1l-1.44.68a2.3,2.3,0,0,1-1.48.37c-.11,0-.14.14,0,.17a2.18,2.18,0,0,0,1.46-.32l1.55-.73c.1-.05.05-.22-.06-.17Z"/><path class="cls-2" d="M144.14,176.73a3.5,3.5,0,0,1-1.64.47c-.11,0-.1.18,0,.18a3.73,3.73,0,0,0,1.73-.5c.1-.06,0-.21-.1-.15Z"/><path class="cls-2" d="M145.76,184.28a3.79,3.79,0,0,1-2.08,1.3c-.11,0-.05.2.06.17a3.85,3.85,0,0,0,2.15-1.35c.08-.09-.06-.21-.13-.12Z"/><path class="cls-2" d="M145.67,185.63a5.87,5.87,0,0,1-2.41,1.22c-.12,0-.06.2.05.18a6,6,0,0,0,2.49-1.28c.09-.07-.05-.19-.13-.12Z"/><path class="cls-2" d="M145.34,191.48l-1.92.94c-.1.05,0,.2.1.15l1.92-.93c.1,0,0-.21-.1-.16Z"/><path class="cls-2" d="M145.5,196.73a3.15,3.15,0,0,1-2.14,1,.09.09,0,1,0,0,.18,3.35,3.35,0,0,0,2.26-1.1c.08-.09-.06-.21-.13-.12Z"/><path class="cls-2" d="M141.21,131.88a3.49,3.49,0,0,0,1.29-.58.09.09,0,0,0-.1-.15,3.32,3.32,0,0,1-1.24.56c-.12,0-.06.2.05.17Z"/><path class="cls-2" d="M141.19,134.91a2.15,2.15,0,0,0,1.32-.53.09.09,0,0,0,0-.13.09.09,0,0,0-.12,0,2,2,0,0,1-1.2.47.09.09,0,1,0,0,.18Z"/><path class="cls-2" d="M140.63,148.37a9.1,9.1,0,0,0,2-.35c.11,0,.06-.2-.06-.17a8.65,8.65,0,0,1-2,.34c-.11,0-.1.19,0,.18Z"/><path class="cls-2" d="M140.77,145.16a2,2,0,0,0,.84-.07.09.09,0,0,0-.06-.17,1.73,1.73,0,0,1-.75.06.09.09,0,0,0-.1.07.09.09,0,0,0,.07.11Z"/><path class="cls-2" d="M140.58,143.27a7.27,7.27,0,0,0,1.27-.42c.1,0,.05-.21-.06-.17a7,7,0,0,1-1.27.42c-.11,0-.06.19.06.17Z"/><path class="cls-2" d="M141,140.15l.64-.24a.11.11,0,0,0,.06-.11.09.09,0,0,0-.12-.06l-.63.24a.08.08,0,0,0-.06.11.09.09,0,0,0,.11.06Z"/><path class="cls-2" d="M140.47,137.62a3.12,3.12,0,0,0,1.13-.27c.05,0,.08-.06.06-.11a.09.09,0,0,0-.11-.06,3.16,3.16,0,0,1-1.09.26c-.11,0-.1.18,0,.18Z"/><path class="cls-2" d="M140.28,130.64a1.64,1.64,0,0,0,1-.22.09.09,0,0,0-.1-.16,1.36,1.36,0,0,1-.88.21.09.09,0,0,0-.11.07.09.09,0,0,0,.07.1Z"/><path class="cls-2" d="M140.08,125.62a3.09,3.09,0,0,0,1.21-.47c.1-.06,0-.21-.1-.15a2.71,2.71,0,0,1-1.12.44s-.09,0-.09.09a.09.09,0,0,0,.1.09Z"/><path class="cls-2" d="M140.15,122.75a1.74,1.74,0,0,0,1.31-.71.09.09,0,0,0-.14-.12,1.58,1.58,0,0,1-1.18.65c-.11,0-.1.18,0,.18Z"/><path class="cls-2" d="M140.62,154.43c1.59,0,2.83-1.1,3.93-2.11.09-.08-.05-.2-.13-.13-1.07,1-2.27,2.07-3.81,2.06-.12,0-.11.18,0,.18Z"/><path class="cls-2" d="M140.85,161.15a2.34,2.34,0,0,0,1.42-.23c.1-.06,0-.21-.1-.16a2.06,2.06,0,0,1-1.29.21.09.09,0,0,0,0,.18Z"/><path class="cls-2" d="M140.93,167a.69.69,0,0,0,.56-.18.09.09,0,0,0,0-.13.11.11,0,0,0-.13,0l0,0s0,0,0,0l0,0h0l-.06,0-.06,0H141a.09.09,0,0,0-.11.07s0,.1.08.1Z"/><path class="cls-2" d="M141,170.69a6.68,6.68,0,0,0,3.24-1.48c.09-.07,0-.22-.1-.15a6.61,6.61,0,0,1-3.15,1.45c-.11,0-.11.2,0,.18Z"/><path class="cls-2" d="M140.77,176.11a1.71,1.71,0,0,0,1.34-.33c.09-.07,0-.22-.1-.15a1.5,1.5,0,0,1-1.21.3.09.09,0,0,0,0,.18Z"/><path class="cls-2" d="M140.79,179.48a1.8,1.8,0,0,0,1.24-.62c.08-.09-.06-.21-.13-.12a1.62,1.62,0,0,1-1.12.56.09.09,0,1,0,0,.18Z"/><path class="cls-2" d="M140.9,181.54l1-.23a.1.1,0,0,0,.06-.12.1.1,0,0,0-.11-.06l-1,.24a.09.09,0,0,0-.06.11.1.1,0,0,0,.12.06Z"/><path class="cls-2" d="M141.09,186.05a2.6,2.6,0,0,0,2.19-.69c.08-.09-.05-.21-.14-.13a2.39,2.39,0,0,1-2,.65c-.11,0-.15.16,0,.17Z"/><path class="cls-2" d="M141,188.41a1.59,1.59,0,0,0,.92-.29c.1-.06,0-.21-.1-.15a1.43,1.43,0,0,1-.83.26.09.09,0,1,0,0,.18Z"/><path class="cls-2" d="M140.77,193.68a1.52,1.52,0,0,0,1.58-.58c.06-.09-.07-.21-.13-.12a1.37,1.37,0,0,1-1.41.53.09.09,0,1,0,0,.17Z"/><path class="cls-2" d="M141,192.35h.63a.1.1,0,0,0,.09-.1.09.09,0,0,0-.1-.08h-.63a.1.1,0,0,0-.09.09.11.11,0,0,0,.1.09Z"/><path class="cls-2" d="M140.87,198a2.47,2.47,0,0,0,.89-.17.09.09,0,0,0,.06-.11.08.08,0,0,0-.11-.06,2.25,2.25,0,0,1-.85.16c-.12,0-.11.18,0,.18Z"/><path class="cls-2" d="M141.07,165.84a7.91,7.91,0,0,0,3.8-2.3.09.09,0,0,0-.13-.13,7.6,7.6,0,0,1-3.72,2.25c-.11,0-.06.2,0,.18Z"/><path class="cls-2" d="M140.65,119.56a6.08,6.08,0,0,0,2.77-.7c.1,0,0-.2-.1-.15a5.94,5.94,0,0,1-2.68.67c-.11,0-.1.19,0,.18Z"/><path class="cls-2" d="M139.78,116.31a4.8,4.8,0,0,0,1.88-.28c.11,0,.06-.21,0-.17a4.78,4.78,0,0,1-1.84.27c-.11,0-.1.17,0,.18Z"/><path class="cls-2" d="M141.51,109.3a9.62,9.62,0,0,0,4.45-2.22c.1-.07,0-.22-.09-.15a9.44,9.44,0,0,1-4.37,2.19c-.11,0-.1.2,0,.18Z"/><path class="cls-2" d="M142.57,107.39a5,5,0,0,0,2.44-2c.07-.1-.09-.18-.16-.08a4.72,4.72,0,0,1-2.34,1.93.09.09,0,0,0,.06.17Z"/><path class="cls-2" d="M144.77,103a2.62,2.62,0,0,1-2.13,2.07c-.11,0-.1.19,0,.18A2.83,2.83,0,0,0,145,103a.09.09,0,0,0-.18,0Z"/><path class="cls-2" d="M144.15,101.46A6.43,6.43,0,0,1,142,104c-.09.06,0,.22.1.15a6.48,6.48,0,0,0,2.19-2.62.09.09,0,0,0-.16-.08Z"/><path class="cls-2" d="M141.19,106.62l1.47-.57c.1,0,.05-.21-.06-.17l-1.47.57c-.1,0,0,.21.06.17Z"/><path class="cls-2" d="M142.54,97.41a2.53,2.53,0,0,1-1.4,2.58c-.1.05,0,.22.06.17a2.71,2.71,0,0,0,1.52-2.76c0-.11-.19-.1-.18,0Z"/><path class="cls-2" d="M140.73,95.7a2.34,2.34,0,0,1-1.59,1.18c-.11,0-.06.2.05.18a2.52,2.52,0,0,0,1.7-1.28c.06-.1-.1-.18-.16-.08Z"/><path class="cls-2" d="M134.91,66.06a3.06,3.06,0,0,1-3.06,1.33.09.09,0,0,0,0,.18,3.24,3.24,0,0,0,3.26-1.43c.06-.1-.1-.18-.16-.08Z"/><path class="cls-2" d="M135.22,67.6a13.21,13.21,0,0,1-2.77,1.23.09.09,0,0,0,.05.17,14.21,14.21,0,0,0,2.82-1.24c.1-.06,0-.21-.1-.16Z"/><path class="cls-2" d="M135.38,68.93a4.25,4.25,0,0,1-3.13,1.7.09.09,0,1,0,0,.18,4.41,4.41,0,0,0,3.25-1.76c.07-.09-.06-.22-.13-.12Z"/><path class="cls-2" d="M135,70.93a6.33,6.33,0,0,1-2.81,1.81.09.09,0,0,0,.06.17,6.51,6.51,0,0,0,2.89-1.86c.08-.08-.06-.21-.14-.12Z"/><path class="cls-2" d="M135,64.53A3.57,3.57,0,0,1,132.24,66c-.11,0-.1.18,0,.18a3.73,3.73,0,0,0,2.88-1.5c.07-.09-.06-.22-.13-.12Z"/><path class="cls-2" d="M135.59,73.07a4.79,4.79,0,0,1-3,1.46c-.11,0-.1.19,0,.18a5,5,0,0,0,3.16-1.52c.08-.08-.06-.2-.14-.12Z"/><path class="cls-2" d="M135,77a4,4,0,0,1-2.51,1.35.09.09,0,1,0,0,.18,4.37,4.37,0,0,0,2.64-1.4c.07-.09-.06-.21-.14-.13Z"/><path class="cls-2" d="M134.93,78.89a5.83,5.83,0,0,1-2.37,1.43c-.11,0-.05.2.06.17A6,6,0,0,0,135.06,79c.09-.08-.05-.21-.13-.12Z"/><path class="cls-2" d="M135,80.59a4.68,4.68,0,0,1-2.49,1.81.09.09,0,0,0,0,.18,4.89,4.89,0,0,0,2.57-1.87c.07-.09-.06-.21-.13-.12Z"/><path class="cls-2" d="M135.06,82.44a2.94,2.94,0,0,1-2.28,1.45.09.09,0,1,0,0,.18,3.13,3.13,0,0,0,2.44-1.55c.05-.1-.11-.18-.17-.08Z"/><path class="cls-2" d="M135.22,83.9a2.69,2.69,0,0,1-1.71,1.6.09.09,0,0,0,.05.17A3,3,0,0,0,135.39,84c0-.1-.12-.19-.17-.08Z"/><path class="cls-2" d="M135.91,85.39A3,3,0,0,1,134,86.62c-.11,0-.05.19.06.17a3.14,3.14,0,0,0,2-1.28c.06-.09-.07-.22-.14-.12Z"/><path class="cls-2" d="M135.77,86.64a2.72,2.72,0,0,1-1.42.84c-.12,0-.06.19.05.17a2.92,2.92,0,0,0,1.51-.89c.07-.09-.06-.21-.14-.12Z"/><path class="cls-2" d="M136,87.44l-1.35.51c-.1,0-.05.22.06.17l1.35-.51a.09.09,0,0,0-.06-.17Z"/><path class="cls-2" d="M136.3,88.66l-1-.1a.09.09,0,0,0-.1.07.1.1,0,0,0,.07.11l.95.1a.1.1,0,0,0,.11-.07.09.09,0,0,0-.07-.11Z"/><path class="cls-2" d="M143.85,100a3.77,3.77,0,0,1-2.16,1.57c-.11,0-.06.2.06.17a4,4,0,0,0,2.26-1.65c.06-.1-.1-.18-.16-.09Z"/><path class="cls-2" d="M143.41,99.06a5.26,5.26,0,0,1-1.41,1.29c-.1.06,0,.21.1.15a5.34,5.34,0,0,0,1.44-1.32c.07-.09-.06-.22-.13-.12Z"/><path class="cls-2" d="M142.43,96.79a3.84,3.84,0,0,1-1.93,1.62.09.09,0,0,0,.06.17,4,4,0,0,0,2-1.71c.06-.1-.1-.18-.16-.08Z"/><path class="cls-2" d="M141.43,96.42a7.47,7.47,0,0,1-1.5,1.11c-.1.06,0,.21.1.15a7.43,7.43,0,0,0,1.53-1.14c.09-.08-.05-.2-.13-.12Z"/><path class="cls-2" d="M140,95.09a3.53,3.53,0,0,1-1.07.56.1.1,0,0,0,.06.18,4.2,4.2,0,0,0,1.11-.58c.09-.07,0-.23-.1-.16Z"/><path class="cls-2" d="M139.33,94.53a1,1,0,0,0-.85.36.11.11,0,0,0,0,.13.09.09,0,0,0,.13,0,.81.81,0,0,1,.68-.3.1.1,0,0,0,.11-.07.1.1,0,0,0-.07-.11Z"/><path class="cls-2" d="M142.13,103.93a16.29,16.29,0,0,1-1.94.4c-.11,0-.1.2,0,.18a16.56,16.56,0,0,0,2-.41.09.09,0,0,0-.05-.17Z"/><path class="cls-2" d="M143,102.05a10.23,10.23,0,0,1-2.69.83c-.12,0-.11.2,0,.18a10.16,10.16,0,0,0,2.73-.84c.11,0,.05-.22,0-.17Z"/><path class="cls-2" d="M140.79,101.11a4.28,4.28,0,0,1-2.25.69c-.12,0-.11.18,0,.18a4.62,4.62,0,0,0,2.34-.71c.09-.07,0-.22-.1-.16Z"/><path class="cls-2" d="M140.93,99l-1.74.62a.09.09,0,0,0,.06.17l1.73-.62c.11,0,.05-.21,0-.17Z"/><path class="cls-2" d="M139.63,108.41a3.82,3.82,0,0,0,2.48-.42c.1-.06,0-.21-.1-.15a3.68,3.68,0,0,1-2.35.4.09.09,0,1,0,0,.17Z"/><path class="cls-2" d="M140.07,110.38a4,4,0,0,0,2.59-.41c.11,0,0-.2-.09-.15a3.92,3.92,0,0,1-2.47.39.09.09,0,1,0,0,.17Z"/><path class="cls-2" d="M140.85,121.06a3,3,0,0,0,2-.71c.09-.07,0-.2-.13-.12a2.83,2.83,0,0,1-1.91.66c-.11,0-.1.17,0,.17Z"/><path class="cls-2" d="M135.31,75.23a5.86,5.86,0,0,1-3,1c-.12,0-.11.17,0,.18a6,6,0,0,0,3.05-1.08.09.09,0,0,0-.09-.15Z"/><path class="cls-2" d="M132.46,66h-.65a.1.1,0,0,0-.09.09.1.1,0,0,0,.1.09h.65a.08.08,0,0,0,.08-.1.08.08,0,0,0-.09-.08Z"/><path class="cls-2" d="M132.21,67.42a1.27,1.27,0,0,1-.27,0l-.13,0-.12,0a.08.08,0,0,0-.12,0,.09.09,0,0,0,0,.12,1.41,1.41,0,0,0,.61.11.1.1,0,0,0,.09-.09.11.11,0,0,0-.1-.09Z"/><path class="cls-2" d="M132.63,68.75a1,1,0,0,1-.64.12.11.11,0,0,0-.11.07.09.09,0,0,0,.07.11,1.19,1.19,0,0,0,.78-.15.08.08,0,0,0,0-.12.09.09,0,0,0-.12,0Z"/><path class="cls-2" d="M132.39,70.62h-.5a.06.06,0,0,1,0,.06.1.1,0,0,0-.07-.11.11.11,0,0,0-.11.08.13.13,0,0,0,0,.1l.08.05H132a2.16,2.16,0,0,0,.36,0,.1.1,0,0,0,.09-.09.11.11,0,0,0-.1-.09Z"/><path class="cls-2" d="M135.2,72.3c-.44.27-.88.88-1.46.73a.09.09,0,0,0,0,.18c.66.17,1.1-.46,1.59-.76a.09.09,0,1,0-.09-.15Z"/><path class="cls-2" d="M134.88,70.35a3.89,3.89,0,0,1-.63.43,2,2,0,0,1-.75.25.09.09,0,1,0,0,.18,2,2,0,0,0,.81-.27,4.08,4.08,0,0,0,.7-.47s0-.1,0-.13a.11.11,0,0,0-.13,0Z"/><path class="cls-2" d="M135.14,68.56a1.68,1.68,0,0,0-.47.22,3.71,3.71,0,0,1-.49.24,3,3,0,0,1-1.06.19c-.12,0-.11.18,0,.18a3,3,0,0,0,1.07-.19,2.62,2.62,0,0,0,.48-.22,2.41,2.41,0,0,1,.51-.25c.11,0,.06-.2-.05-.17Z"/><path class="cls-2" d="M134.26,64.07A3.08,3.08,0,0,1,132,65c-.11,0-.15.16,0,.18a3.29,3.29,0,0,0,2.36-.92c.09-.07,0-.22-.1-.15Z"/><path class="cls-2" d="M133.27,77.31a1,1,0,0,0,.61-.11l.6-.31a2.42,2.42,0,0,0,1-.77c.06-.1-.1-.18-.16-.08a2.21,2.21,0,0,1-.86.68l-.52.27a1,1,0,0,1-.6.14.09.09,0,0,0,0,.18Z"/></g></svg>