<svg xmlns="http://www.w3.org/2000/svg" width="260" height="260" viewBox="0 0 260 260"><defs><style>.cls-1,.cls-2,.cls-3{fill:none;stroke:#af7171;stroke-miterlimit:10;}.cls-2{opacity:0.3;}.cls-3{opacity:0.4;}</style></defs><g id="_3._krop" data-name="3. krop"><path class="cls-1" d="M129.25,80.42S126.74,61,145.82,57.6L151.43,69s-17.7,4.35-14.4,11.41Z"/><path class="cls-1" d="M127,77.77s7.16,3.44,13.39,0,35.18-14.12,48.9-12.59S247.26,85,248.79,106.34s5.23,65.55-46.93,68.6c0,0-21.67,13.72-41.49,9.14,0,0-26.29,12.54-50.49.94,0,0-27.26,2.11-47.07-5.51S15.55,149,12.5,107.86c0,0,7.07-43,56.89-42.83S127,77.77,127,77.77Z"/><path class="cls-2" d="M127,77.77S11.47,52.24,33.33,158.56l13,11.82S20.54,76.64,127,77.77Z"/><path class="cls-2" d="M131,79S76.93,90.5,85.88,184.55l19.58.67S89.43,124.81,131,79Z"/><path class="cls-2" d="M137,80.42s24.72,39.2,9.55,108c0,0,9.22-2.83,13.79-4.36,0,0,5.62,1.86,8.14.93C168.51,185,157.9,98.72,137,80.42Z"/><path class="cls-2" d="M137.56,78.88s60.06,19.84,64.3,96.06l12.83-1.8S206.22,92.59,137.56,78.88Z"/><path class="cls-3" d="M140.43,77.77s72.72-8.72,108.83,35.84l-.58-8.3S221.09,61.4,140.43,77.77Z"/><polygon class="cls-1" points="80.17 92.34 80.17 112.08 118.02 121.2 80.17 92.34"/><polygon class="cls-1" points="186.77 92.34 186.77 112.08 148.91 121.2 186.77 92.34"/><path class="cls-1" d="M55.44,126.91s77.42,25.15,159.25,0c0,0-33.76,27.17-79.63,30S55.44,126.91,55.44,126.91Z"/><path class="cls-1" d="M76.54,132.11,82.63,142,93,134.92l6,8.7,8.85-6.92,7.18,9.27,9.51-8.14,9.18,8.14,6.62-7.9,11,7.9,6.43-8.63,10.65,7,5-8.63,9.91,6.22,3.31-8.28,6.09,3.13,3-4.72,6.11,1.67,2.34-3.95s-63.46,18.2-139.61-.36l4.64,5.83Z"/><path class="cls-1" d="M70.55,138.46l4.93-3.16L82,145l8.73-5.16,7.77,12.05,8-10,7,13.69,10.82-12.75,10.8,14,5.37-13.08,12.34,10.77L158.46,142l10.74,8.3,5.37-10.4,9.19,4.87,4.3-7,6.78,1.7,2.58-4.12,3.7.63S132.69,181.25,70.55,138.46Z"/></g></svg>