<svg xmlns="http://www.w3.org/2000/svg" width="314.631" height="219.873" viewBox="0 0 314.631 219.873">
  <g id="Group_5" data-name="Group 5" transform="translate(1.643 0.649)">
    <path id="Path_4" data-name="Path 4" d="M22.571,49.234,0,55.2l22.553,5.912,23.829-.036s7.691,12.74,27.232,12.665S99.58,60.992,99.58,60.992l17.722-.027a7.767,7.767,0,0,0,3.737,4.384,8.32,8.32,0,0,0,3.277,1.14c1.379.314,4.913.986,5.985.479l-.057,38.116,35.851-.054.011-7.5-27.085.041.046-30.62s6.107-1.034,9.253-4.031,3.328-7.957,3.328-7.957l31.436-.047-.018,11.969-16.914.025-.01,6.682,16.914-.025-.011,7.613-16.914.025-.011,7.622,25.54-.038.067-44.577-40.062.06s-.954-7.443-4.692-12.136-6.339-4.928-10.259-6.638l.026-17.16,11.647-.017L148.4,0l-31,.046-.012,8.327,13.007-.019-.026,17.16s-6.015,1.963-9.274,6.667-3.6,9.876-3.761,12.149L99.6,44.356s-8.051-10.1-25.931-10.331S46.4,49.2,46.4,49.2Z" transform="matrix(0.656, 0.755, -0.755, 0.656, 186.499, 2.994)" fill="none" stroke="#c7b299" stroke-width="1"/>
    <path id="Path_12" data-name="Path 12" d="M23.192,58.473,0,52.5l23.261-6.25,24.531-.139S55.8,32.95,75.919,32.884s26.636,12.923,26.636,12.923l18.244-.1a8.152,8.152,0,0,1,3.879-4.539,8.682,8.682,0,0,1,3.382-1.2c1.422-.333,5.065-1.051,6.164-.537L134.445.209,171.351,0l-.044,7.713-27.882.158-.178,31.508s6.28,1.019,9.5,4.079,3.367,8.163,3.367,8.163l32.361-.183.07-12.316-17.412.1.039-6.876,17.412-.1.044-7.834-17.412.1.044-7.843,26.292-.149-.259,45.87-41.241.233s-1.037,7.666-4.919,12.523-6.562,5.117-10.61,6.906l-.1,17.658,11.99-.068-.048,8.569-31.917.18.048-8.569,13.39-.076.1-17.658s-6.178-1.976-9.5-6.792-3.635-10.136-3.783-12.473l-18.244.1S94.1,73.377,75.687,73.746,47.722,58.334,47.722,58.334Z" transform="matrix(-0.695, 0.719, -0.719, -0.695, 214.266, 76.408)" fill="none" stroke="#c7b299" stroke-width="1"/>
  </g>
</svg>
