<svg xmlns="http://www.w3.org/2000/svg" width="260" height="260" viewBox="0 0 260 260"><defs><style>.cls-1{fill:none;stroke:#af7171;stroke-width:1.5px;}</style></defs><g id="_5._krop" data-name="5. krop"><g id="Group_6" data-name="Group 6"><path id="Path_2" data-name="Path 2" class="cls-1" d="M105.73,98.16s-13.43-7-14.22-32.62,10.61-30.78,10.4-39.11,6-20.4,6-20.4,2.08,22.58,0,25.75-5.51,15.39-6,17.19-2.73,11.27-1.73,16.57S102.7,79.23,105.73,84s10,14.21,10,14.21Z"/><path id="Path_3" data-name="Path 3" class="cls-1" d="M103.58,152.84s-7,13.43-32.63,14.22-30.78-10.6-39.1-10.39-20.41-6-20.41-6,22.58-2.08,25.75,0,15.4,5.5,17.19,6S65.65,159.39,71,158.4s13.7-2.53,18.42-5.56,14.21-10,14.21-10Z"/><path id="Path_4" data-name="Path 4" class="cls-1" d="M151.48,162.46s13.43,6.95,14.22,32.63-10.6,30.78-10.4,39.1-6,20.41-6,20.41-2.08-22.58,0-25.75,5.5-15.39,6-17.19S158,200.39,157,195.09s-2.53-13.7-5.56-18.42-9.95-14.21-9.95-14.21Z"/><path id="Path_5" data-name="Path 5" class="cls-1" d="M153.64,107.44s7-13.43,32.62-14.22,30.78,10.6,39.11,10.39,20.4,6,20.4,6-22.58,2.08-25.75,0-15.39-5.51-17.19-6-11.27-2.72-16.57-1.73-13.69,2.53-18.42,5.56-14.2,10-14.2,10Z"/><path id="Path_6" data-name="Path 6" class="cls-1" d="M151.48,98.17s13.43-7,14.22-32.63-10.6-30.78-10.4-39.11-6-20.4-6-20.4-2.08,22.58,0,25.75,5.51,15.39,6,17.19S158,60.24,157,65.54,154.52,79.23,151.48,84s-9.95,14.21-9.95,14.21Z"/><path id="Path_7" data-name="Path 7" class="cls-1" d="M103.58,107.44S96.62,94,71,93.22s-30.78,10.6-39.11,10.39-20.4,6-20.4,6,22.58,2.08,25.75,0,15.4-5.51,17.19-6,11.27-2.72,16.58-1.73,13.69,2.53,18.41,5.56,14.21,10,14.21,10Z"/><path id="Path_8" data-name="Path 8" class="cls-1" d="M153.64,152.84s7,13.43,32.62,14.22,30.78-10.6,39.11-10.39,20.4-6,20.4-6-22.58-2.08-25.75,0-15.39,5.5-17.19,6-11.27,2.72-16.57,1.73-13.69-2.53-18.42-5.56-14.2-10-14.2-10Z"/><path id="Path_9" data-name="Path 9" class="cls-1" d="M105.73,162.46s-13.43,7-14.22,32.63,10.61,30.78,10.4,39.11,6,20.4,6,20.4,2.08-22.58,0-25.75-5.51-15.39-6-17.19-2.73-11.27-1.74-16.58,2.53-13.69,5.56-18.41,10-14.21,10-14.21Z"/><path id="Path_10" data-name="Path 10" class="cls-1" d="M128.35,107.72a45.49,45.49,0,0,1-6.27,11.85,43.75,43.75,0,0,1-9.87,8.84,45.64,45.64,0,0,1,9.87,9.85,52.75,52.75,0,0,1,6.27,13.17,111.71,111.71,0,0,1,7.27-13.17,67.82,67.82,0,0,1,9.46-9.85,52.15,52.15,0,0,1-9.46-8.84A66,66,0,0,1,128.35,107.72Z"/></g></g></svg>